<svg xml:space="preserve" viewBox="0 0 850.39 368.5" height="368.5px" width="850.39px" y="0px" x="0px" xmlns:xlink="http://www.w3.org/1999/xlink" xmlns="http://www.w3.org/2000/svg" id="图层_1" version="1.1">
<g>
	<g>
		<path d="M826.475,342.75c0.254,0.494,0.295,1.002,0.125,1.525
			c-0.174,0.52-0.507,0.902-1,1.149c-0.495,0.253-1.004,0.294-1.524,0.125c-3.134-1.033-6.251-2.066-9.351-3.1l0.051,0.024
			c-0.785-0.241-1.535-0.482-2.25-0.725c-0.521-0.174-0.904-0.508-1.15-1c-0.254-0.494-0.295-1.003-0.125-1.525
			c0.174-0.52,0.507-0.903,1-1.149c0.494-0.253,1.002-0.295,1.525-0.125c0.684,0.225,1.4,0.45,2.149,0.675l0.05,0.025
			c3.1,1.033,6.217,2.066,9.351,3.1C825.846,341.924,826.229,342.258,826.475,342.75z M767.725,327.95
			c-0.276-0.481-0.343-0.99-0.199-1.525c0.14-0.526,0.448-0.927,0.925-1.2c0.474-0.275,0.974-0.343,1.5-0.199
			c12,3.174,23.75,6.582,35.25,10.225c0.526,0.164,0.919,0.489,1.175,0.975c0.253,0.492,0.295,1,0.125,1.525
			c-0.163,0.526-0.488,0.918-0.975,1.175c-0.492,0.253-1.001,0.294-1.525,0.125c-11.434-3.624-23.117-7.017-35.05-10.175
			C768.414,328.734,768.006,328.426,767.725,327.95z M765.175,277.075c-0.291,0.478-0.708,0.786-1.25,0.925l-3.55,0.95
			c-0.529,0.134-1.029,0.06-1.5-0.226c-0.479-0.283-0.786-0.691-0.925-1.225c-0.135-0.538-0.06-1.046,0.225-1.525
			c0.292-0.477,0.708-0.785,1.25-0.925l3.55-0.95c0.529-0.134,1.029-0.059,1.5,0.226c0.479,0.284,0.787,0.692,0.926,1.225
			C765.535,276.088,765.46,276.596,765.175,277.075z M754.6,282.45c0.055-0.548,0.297-0.997,0.726-1.351
			c0.431-0.352,0.923-0.502,1.475-0.449c0.546,0.055,0.996,0.296,1.351,0.725l3.3,3.95c0.351,0.431,0.501,0.923,0.45,1.475
			c-0.055,0.548-0.297,0.997-0.726,1.351c-0.431,0.352-0.923,0.502-1.475,0.449c-0.546-0.055-0.996-0.297-1.351-0.725l-3.3-3.95
			C754.699,283.494,754.549,283.002,754.6,282.45z M758.05,266.925c0.315,0.456,0.424,0.956,0.325,1.5l-1,5.45
			c-0.106,0.537-0.39,0.963-0.85,1.275c-0.449,0.314-0.94,0.424-1.476,0.324c-0.547-0.105-0.979-0.389-1.3-0.85
			c-0.315-0.456-0.424-0.956-0.325-1.5l1-5.45c0.106-0.537,0.39-0.962,0.851-1.274c0.448-0.316,0.939-0.424,1.475-0.325
			C757.297,266.181,757.73,266.465,758.05,266.925z M656.8,339.425c-0.139,0.532-0.447,0.94-0.925,1.226l-5.35,3.199
			c-0.471,0.293-0.971,0.376-1.5,0.25c-0.532-0.138-0.941-0.446-1.226-0.925c-0.293-0.47-0.376-0.97-0.25-1.5
			c0.14-0.531,0.447-0.94,0.925-1.225l5.351-3.2c0.471-0.293,0.971-0.376,1.5-0.25c0.532,0.139,0.94,0.446,1.225,0.925
			C656.843,338.395,656.926,338.895,656.8,339.425z M652.45,322.825c0.472-0.276,0.972-0.344,1.5-0.2
			c0.534,0.133,0.942,0.434,1.225,0.9l3.05,5.1c0.277,0.482,0.344,0.99,0.2,1.525c-0.14,0.534-0.448,0.942-0.925,1.225
			c-0.473,0.276-0.973,0.344-1.5,0.2c-0.534-0.134-0.942-0.433-1.225-0.9l-3.051-5.1c-0.276-0.482-0.343-0.991-0.199-1.525
			C651.665,323.516,651.973,323.107,652.45,322.825z M592.525,347.25c0.384-0.395,0.851-0.594,1.399-0.6
			c0.55-0.006,1.025,0.186,1.425,0.574l3.75,3.65c0.394,0.385,0.594,0.852,0.601,1.4c0.005,0.551-0.187,1.026-0.575,1.425
			c-0.385,0.394-0.851,0.594-1.4,0.6c-0.55,0.005-1.024-0.187-1.425-0.575l-3.75-3.649c-0.393-0.385-0.593-0.852-0.6-1.4
			C591.945,348.123,592.137,347.648,592.525,347.25z M596.1,334.2c0.551-0.015,1.026,0.169,1.426,0.55
			c0.402,0.383,0.61,0.85,0.625,1.4c0.014,0.557-0.17,1.04-0.551,1.449l-2.85,2.851c-0.384,0.392-0.851,0.593-1.4,0.6
			c-0.551,0.015-1.025-0.169-1.425-0.55c-0.402-0.383-0.61-0.85-0.625-1.4c-0.014-0.557,0.17-1.041,0.55-1.449l2.851-2.851
			C595.084,334.408,595.55,334.207,596.1,334.2z M668.7,326.925c0.546,0.106,0.979,0.39,1.3,0.851
			c0.315,0.448,0.424,0.939,0.325,1.475c-0.106,0.546-0.39,0.979-0.851,1.3l-4.199,2.95c-0.45,0.314-0.941,0.424-1.476,0.325
			c-0.546-0.106-0.979-0.39-1.3-0.851c-0.315-0.448-0.424-0.939-0.325-1.475c0.106-0.546,0.39-0.979,0.851-1.3l4.199-2.95
			C667.675,326.936,668.166,326.826,668.7,326.925z M669.25,343.825c-0.055,0.546-0.296,0.997-0.725,1.35
			c-0.422,0.36-0.905,0.519-1.45,0.476c-0.546-0.055-0.995-0.297-1.351-0.726l-3.449-4.2c-0.359-0.422-0.519-0.904-0.476-1.449
			c0.055-0.547,0.296-0.997,0.726-1.351c0.422-0.36,0.904-0.519,1.449-0.475c0.546,0.054,0.996,0.296,1.351,0.725l3.45,4.2
			C669.135,342.797,669.293,343.28,669.25,343.825z M745.075,283.95c0.078-0.541,0.337-0.974,0.774-1.3l4.25-3.101
			c0.452-0.33,0.952-0.455,1.5-0.375c0.541,0.086,0.975,0.353,1.301,0.8c0.33,0.443,0.455,0.935,0.375,1.476
			c-0.079,0.54-0.338,0.974-0.775,1.3l-4.25,3.1c-0.452,0.33-0.952,0.455-1.5,0.375c-0.541-0.086-0.975-0.352-1.3-0.8
			C745.119,284.982,744.994,284.491,745.075,283.95z M743.075,271.8c-0.071-0.546,0.063-1.038,0.399-1.475
			c0.339-0.435,0.78-0.685,1.325-0.75c0.546-0.07,1.038,0.063,1.476,0.399l5.85,4.5c0.434,0.34,0.684,0.781,0.75,1.325
			c0.07,0.546-0.063,1.038-0.4,1.476c-0.338,0.434-0.779,0.684-1.324,0.75c-0.547,0.069-1.038-0.064-1.476-0.4l-5.85-4.5
			C743.392,272.785,743.142,272.344,743.075,271.8z M734.1,220.675l-0.024-0.024c-2.072-2.1-4.564-3.149-7.476-3.15
			c-2.926,0.006-5.459,1.064-7.6,3.175c-2.1,2.072-3.149,4.563-3.15,7.476c-0.002,2.974,1.047,5.498,3.15,7.574
			c2.141,2.111,4.674,3.17,7.6,3.176c2.911-0.002,5.403-1.051,7.476-3.15l0.024-0.025c2.104-2.076,3.153-4.601,3.15-7.574
			C737.249,225.238,736.199,222.747,734.1,220.675z M726.6,213.5c4.011-0.001,7.443,1.44,10.301,4.325l0.024,0.024
			c2.885,2.856,4.326,6.29,4.325,10.301c-0.003,4.08-1.444,7.547-4.325,10.399l-0.024,0.025c-2.857,2.884-6.29,4.326-10.301,4.325
			c-4.007,0.006-7.474-1.437-10.399-4.325c-2.897-2.858-4.348-6.333-4.351-10.425c-0.001-4.022,1.449-7.465,4.351-10.325
			C719.126,214.936,722.593,213.494,726.6,213.5z M670.775,253.825c0.394-0.388,0.869-0.579,1.425-0.575
			c0.556-0.004,1.03,0.188,1.425,0.575c0.387,0.394,0.578,0.868,0.575,1.425v8.9h8.85c0.556-0.004,1.031,0.188,1.425,0.574
			c0.387,0.395,0.579,0.869,0.575,1.426c0.004,0.556-0.188,1.03-0.575,1.425c-0.394,0.387-0.869,0.578-1.425,0.575h-8.85v8.899
			c0.003,0.556-0.188,1.031-0.575,1.425c-0.395,0.387-0.869,0.579-1.425,0.575c-0.556,0.004-1.031-0.188-1.425-0.575
			c-0.388-0.394-0.579-0.869-0.575-1.425v-8.899h-8.9c-0.556,0.003-1.03-0.188-1.425-0.575c-0.387-0.395-0.578-0.869-0.575-1.425
			c-0.003-0.557,0.188-1.031,0.575-1.426c0.395-0.387,0.869-0.578,1.425-0.574h8.9v-8.9
			C670.196,254.693,670.388,254.219,670.775,253.825z M663.375,184.325c-0.387-0.395-0.578-0.869-0.575-1.425
			c-0.003-0.556,0.188-1.031,0.575-1.425c0.395-0.387,0.869-0.579,1.425-0.575h7.851V173c-0.004-0.556,0.188-1.031,0.574-1.425
			c0.395-0.387,0.869-0.579,1.426-0.575c0.556-0.004,1.03,0.188,1.425,0.575c0.387,0.394,0.578,0.869,0.575,1.425v7.9h7.899
			c0.556-0.003,1.031,0.188,1.425,0.575c0.387,0.394,0.579,0.869,0.575,1.425c0.004,0.556-0.188,1.031-0.575,1.425
			c-0.394,0.387-0.869,0.578-1.425,0.575h-7.899v7.9c0.003,0.556-0.188,1.031-0.575,1.425c-0.395,0.387-0.869,0.579-1.425,0.575
			c-0.557,0.004-1.031-0.188-1.426-0.575c-0.387-0.394-0.578-0.869-0.574-1.425v-7.9H664.8
			C664.244,184.903,663.77,184.712,663.375,184.325z M658.55,78.525c0.46-0.686,1.093-1.111,1.9-1.275
			c0.81-0.162,1.56-0.012,2.25,0.45c0.696,0.458,1.13,1.092,1.3,1.9c0.161,0.815,0.012,1.574-0.45,2.275l-3.2,4.75
			c-0.459,0.686-1.092,1.111-1.899,1.275c-0.81,0.162-1.56,0.012-2.25-0.45c-0.696-0.459-1.13-1.092-1.3-1.9
			c-0.162-0.815-0.012-1.574,0.449-2.275L658.55,78.525z M682.475,45.15c0.813-0.153,1.563,0.005,2.25,0.475
			c0.69,0.461,1.115,1.094,1.275,1.9c0.151,0.811-0.007,1.561-0.475,2.25l-14.65,21.55c-0.463,0.689-1.096,1.114-1.9,1.275
			c-0.812,0.153-1.562-0.005-2.25-0.475c-0.689-0.461-1.114-1.094-1.274-1.9c-0.151-0.811,0.007-1.561,0.475-2.25l14.65-21.55
			C681.037,45.736,681.671,45.311,682.475,45.15z M456.175,336c1.749,1.717,2.624,3.816,2.625,6.3
			c0.007,2.452-0.868,4.562-2.625,6.325c-1.723,1.715-3.831,2.574-6.325,2.575c-2.392,0.007-4.483-0.843-6.274-2.55
			c-0.016-0.018-0.032-0.035-0.05-0.051c-1.716-1.757-2.574-3.857-2.575-6.3c0.001-2.494,0.859-4.603,2.575-6.325h0.024
			c1.799-1.757,3.898-2.632,6.3-2.625c2.484,0.002,4.584,0.877,6.301,2.625L456.175,336z M453.35,338.825l-0.024-0.025
			c-0.946-0.968-2.104-1.451-3.476-1.45c-1.332,0.008-2.498,0.499-3.5,1.476h0.025c-0.951,0.944-1.427,2.103-1.425,3.475
			c-0.002,1.334,0.457,2.483,1.375,3.45c0.017,0.017,0.033,0.033,0.05,0.05c0.998,0.927,2.156,1.394,3.475,1.4
			c1.373,0.001,2.531-0.474,3.476-1.425c0.976-0.97,1.468-2.128,1.475-3.476C454.801,340.929,454.318,339.771,453.35,338.825z
			 M583.075,346.425c0.394-0.387,0.869-0.579,1.425-0.575c0.556-0.004,1.031,0.188,1.425,0.575c0.387,0.394,0.579,0.869,0.575,1.425
			c0.004,0.557-0.188,1.031-0.575,1.426l-3.8,3.75c-0.395,0.387-0.869,0.578-1.425,0.574c-0.556,0.004-1.031-0.188-1.425-0.574
			c-0.388-0.395-0.579-0.869-0.575-1.426c-0.004-0.556,0.188-1.031,0.575-1.425L583.075,346.425z M578.25,334.825
			c0.006-0.55,0.206-1.017,0.6-1.4c0.398-0.388,0.874-0.58,1.426-0.575c0.556,0.006,1.031,0.206,1.425,0.601l2.899,2.95
			c0.379,0.398,0.563,0.873,0.551,1.425c-0.006,0.549-0.206,1.016-0.601,1.399c-0.398,0.389-0.873,0.58-1.425,0.575
			c-0.557-0.006-1.031-0.206-1.425-0.6l-2.9-2.95C578.421,335.852,578.238,335.377,578.25,334.825z M539.7,289.475
			c0.367,0.418,0.534,0.9,0.5,1.45c-0.036,0.551-0.261,1.009-0.675,1.375c-0.418,0.367-0.902,0.534-1.45,0.5
			c-25.734-1.699-52.201-2.8-79.4-3.3c-0.559-0.015-1.034-0.223-1.425-0.625c-0.381-0.399-0.563-0.875-0.55-1.425
			c0.015-0.55,0.223-1.017,0.625-1.4c0.392-0.38,0.858-0.563,1.399-0.55c27.268,0.5,53.801,1.6,79.601,3.3
			C538.877,288.836,539.335,289.061,539.7,289.475z M573.975,294.975c-0.36-0.422-0.519-0.904-0.475-1.449
			c0.055-0.547,0.296-0.997,0.725-1.351c0.422-0.36,0.905-0.519,1.45-0.475c65.052,5.876,125.227,15.792,180.525,29.75
			c0.532,0.139,0.94,0.447,1.225,0.925c0.285,0.479,0.36,0.987,0.226,1.525c-0.139,0.533-0.447,0.941-0.926,1.225
			c-0.479,0.284-0.986,0.359-1.524,0.225C700.1,311.44,640.141,301.557,575.325,295.7
			C574.778,295.646,574.328,295.404,573.975,294.975z M333.425,346.125c0.504,0.232,0.854,0.607,1.05,1.125l2.801,7.35
			c0.195,0.515,0.178,1.023-0.051,1.525c-0.231,0.504-0.606,0.854-1.125,1.05c-0.514,0.195-1.021,0.179-1.524-0.05
			c-0.504-0.232-0.854-0.607-1.05-1.125l-2.801-7.35c-0.195-0.516-0.179-1.023,0.051-1.525c0.231-0.504,0.606-0.854,1.125-1.05
			C332.414,345.879,332.922,345.896,333.425,346.125z M315.775,355.275c-0.538-0.076-0.972-0.334-1.301-0.775
			c-0.338-0.438-0.471-0.931-0.399-1.475c0.067-0.546,0.317-0.988,0.75-1.325l8.899-6.75c0.448-0.329,0.948-0.454,1.5-0.375
			c0.538,0.075,0.972,0.333,1.301,0.774c0.338,0.439,0.471,0.931,0.399,1.476c-0.067,0.546-0.317,0.987-0.75,1.325l-8.899,6.75
			C316.827,355.229,316.327,355.354,315.775,355.275z M313.55,334.375c0.244-0.5,0.628-0.842,1.15-1.025
			c0.518-0.178,1.026-0.145,1.524,0.101l7.65,3.7c0.498,0.244,0.84,0.627,1.025,1.149c0.178,0.52,0.145,1.028-0.101,1.525
			c-0.244,0.499-0.628,0.841-1.149,1.024c-0.519,0.179-1.026,0.146-1.525-0.1l-7.65-3.7c-0.498-0.245-0.839-0.628-1.024-1.149
			C313.271,335.381,313.305,334.872,313.55,334.375z M328.425,335.125c-0.387-0.395-0.578-0.869-0.575-1.425v-5.55
			c-0.003-0.557,0.188-1.031,0.575-1.426c0.395-0.387,0.869-0.578,1.425-0.574c0.557-0.004,1.031,0.188,1.426,0.574
			c0.387,0.395,0.578,0.869,0.574,1.426v5.55c0.004,0.556-0.188,1.03-0.574,1.425c-0.395,0.387-0.869,0.578-1.426,0.575
			C329.294,335.703,328.819,335.512,328.425,335.125z M344.65,335.575c0.517,0.195,0.892,0.545,1.125,1.05
			c0.229,0.502,0.245,1.01,0.05,1.525c-0.196,0.517-0.547,0.892-1.05,1.125l-7.15,3.35c-0.503,0.229-1.011,0.245-1.525,0.05
			c-0.517-0.195-0.892-0.545-1.125-1.05c-0.229-0.502-0.245-1.01-0.05-1.525c0.196-0.517,0.547-0.892,1.05-1.125l7.15-3.35
			C343.628,335.396,344.136,335.38,344.65,335.575z M372.875,286.5c0.401,0.382,0.609,0.849,0.625,1.4
			c0.015,0.549-0.169,1.023-0.55,1.425c-0.382,0.401-0.849,0.609-1.4,0.625c-17.541,0.5-34.783,1.267-51.725,2.3
			c-0.553,0.033-1.036-0.134-1.45-0.5c-0.415-0.367-0.641-0.826-0.675-1.375c-0.034-0.551,0.133-1.034,0.5-1.45
			c0.368-0.415,0.826-0.64,1.375-0.675c16.991-1.033,34.282-1.801,51.875-2.3C371.999,285.936,372.474,286.119,372.875,286.5z
			 M162.85,265.625h0.025c2.457,2.465,3.683,5.406,3.675,8.825c0.003,3.489-1.222,6.465-3.675,8.925h-0.025
			c-2.455,2.416-5.404,3.625-8.85,3.625c-3.405,0-6.355-1.209-8.85-3.625h-0.025c-2.453-2.46-3.678-5.436-3.675-8.925
			c-0.008-3.419,1.218-6.36,3.675-8.825h0.025c2.494-2.416,5.444-3.625,8.85-3.625C157.445,262,160.395,263.209,162.85,265.625z
			 M160.025,268.475h0.024c-1.679-1.65-3.695-2.475-6.05-2.475c-2.328,0-4.345,0.824-6.05,2.475h0.024
			c-1.676,1.669-2.518,3.66-2.524,5.976c0.003,2.376,0.845,4.401,2.524,6.075h-0.024c1.705,1.65,3.722,2.475,6.05,2.475
			c2.354,0,4.371-0.824,6.05-2.475h-0.024c1.68-1.674,2.521-3.699,2.524-6.075C162.543,272.135,161.701,270.144,160.025,268.475z
			 M190.8,331.15c0.489-0.27,0.998-0.328,1.525-0.176c0.523,0.162,0.915,0.486,1.175,0.976c0.27,0.487,0.327,0.996,0.175,1.524
			c-0.163,0.523-0.487,0.916-0.975,1.176l-5.9,3.199c-0.489,0.27-0.998,0.328-1.524,0.176c-0.523-0.162-0.916-0.486-1.176-0.976
			c-0.269-0.487-0.327-0.996-0.175-1.524c0.163-0.523,0.488-0.916,0.976-1.176L190.8,331.15z M189.825,317.35
			c0.549,0.036,1.007,0.262,1.375,0.676l3.7,4.25c0.366,0.417,0.532,0.9,0.5,1.449c-0.035,0.551-0.261,1.009-0.676,1.375
			c-0.416,0.367-0.899,0.534-1.449,0.5c-0.55-0.035-1.008-0.26-1.375-0.675l-3.7-4.25c-0.366-0.417-0.533-0.9-0.5-1.45
			c0.035-0.55,0.26-1.008,0.675-1.375C188.791,317.482,189.274,317.316,189.825,317.35z M203.55,320.825
			c0.431-0.36,0.922-0.519,1.476-0.476c0.545,0.055,0.995,0.296,1.35,0.726c0.36,0.421,0.519,0.903,0.475,1.45
			c-0.047,0.545-0.28,0.995-0.699,1.35l-3.851,3.35c-0.431,0.36-0.922,0.519-1.475,0.476c-0.546-0.054-0.996-0.296-1.351-0.726
			c-0.359-0.42-0.518-0.903-0.475-1.449c0.047-0.546,0.28-0.996,0.7-1.351L203.55,320.825z M200.1,331.425
			c0.53-0.151,1.039-0.093,1.525,0.175l5.15,2.9c0.48,0.271,0.797,0.671,0.949,1.2c0.152,0.531,0.095,1.04-0.175,1.524
			c-0.271,0.482-0.67,0.799-1.2,0.95c-0.53,0.152-1.038,0.094-1.524-0.175l-5.15-2.9c-0.481-0.271-0.798-0.67-0.95-1.199
			c-0.152-0.532-0.094-1.04,0.176-1.525C199.17,331.893,199.57,331.576,200.1,331.425z M79.4,328.475
			c-0.477-0.272-0.785-0.673-0.926-1.199c-0.143-0.535-0.076-1.044,0.2-1.525c0.273-0.477,0.674-0.784,1.2-0.925
			c61.639-16.468,129.506-27.793,203.6-33.976c0.545-0.043,1.028,0.115,1.45,0.476c0.43,0.354,0.671,0.804,0.726,1.35
			c0.043,0.546-0.115,1.029-0.476,1.45c-0.354,0.43-0.804,0.671-1.35,0.725c-73.838,6.152-141.472,17.427-202.9,33.825
			C80.39,328.818,79.881,328.752,79.4,328.475z M41.75,339.575c-0.494-0.248-0.828-0.632-1-1.15
			c-0.17-0.524-0.128-1.032,0.125-1.524c0.247-0.494,0.631-0.828,1.15-1c6.857-2.209,13.766-4.301,20.725-6.275
			c0.531-0.152,1.039-0.094,1.525,0.175c0.481,0.271,0.799,0.671,0.949,1.2c0.152,0.531,0.095,1.04-0.175,1.525
			c-0.27,0.481-0.67,0.798-1.2,0.949c-6.908,1.959-13.767,4.034-20.574,6.226C42.751,339.869,42.243,339.828,41.75,339.575z
			 M33.3,339.275c0.494,0.248,0.828,0.631,1,1.149c0.17,0.524,0.128,1.032-0.125,1.525c-0.255,0.493-0.646,0.827-1.175,1
			c-2.575,0.825-5.116,1.684-7.625,2.575c-0.518,0.186-1.025,0.16-1.525-0.075c-0.498-0.235-0.84-0.61-1.024-1.125
			c-0.188-0.519-0.162-1.026,0.075-1.525c0.233-0.497,0.608-0.839,1.125-1.024c2.558-0.909,5.149-1.784,7.774-2.625
			C32.314,338.98,32.814,339.022,33.3,339.275z M80.925,290.475c0.395-0.387,0.869-0.578,1.425-0.574
			c0.557-0.004,1.031,0.188,1.426,0.574l3.699,3.65c0.387,0.395,0.579,0.869,0.575,1.425c0.004,0.556-0.188,1.031-0.575,1.425
			c-0.394,0.387-0.869,0.579-1.425,0.575c-0.556,0.004-1.031-0.188-1.425-0.575l-3.7-3.649c-0.387-0.395-0.578-0.869-0.575-1.425
			C80.347,291.344,80.538,290.869,80.925,290.475z M71.425,289.7c0.385-0.394,0.852-0.593,1.4-0.601
			c0.552-0.005,1.026,0.188,1.425,0.575c0.395,0.385,0.594,0.852,0.6,1.4c0.005,0.55-0.187,1.024-0.574,1.425l-3.75,3.75
			c-0.385,0.393-0.852,0.593-1.4,0.6c-0.552,0.006-1.026-0.186-1.425-0.574c-0.395-0.385-0.595-0.852-0.601-1.4
			c-0.005-0.551,0.187-1.025,0.575-1.425L71.425,289.7z M67.15,279.5c-0.379-0.398-0.563-0.873-0.551-1.425
			c0.006-0.55,0.206-1.017,0.601-1.4c0.398-0.388,0.873-0.58,1.425-0.575c0.557,0.006,1.031,0.206,1.425,0.601l2.9,2.95
			c0.379,0.398,0.562,0.873,0.55,1.425c-0.006,0.549-0.206,1.016-0.6,1.399c-0.399,0.389-0.874,0.58-1.426,0.575
			c-0.556-0.006-1.031-0.206-1.425-0.6L67.15,279.5z M84.45,277.45c0.551-0.015,1.025,0.169,1.425,0.55
			c0.402,0.383,0.61,0.85,0.625,1.4c0.014,0.557-0.17,1.04-0.55,1.449L83.1,283.7c-0.383,0.392-0.85,0.593-1.399,0.6
			c-0.551,0.015-1.026-0.169-1.425-0.55c-0.402-0.383-0.611-0.85-0.625-1.4c-0.015-0.557,0.169-1.041,0.55-1.449l2.85-2.851
			C83.434,277.658,83.9,277.457,84.45,277.45z M116.325,207.025c0.394-0.388,0.869-0.579,1.425-0.575
			c0.556-0.004,1.031,0.188,1.425,0.575c0.387,0.394,0.579,0.869,0.575,1.425v10.399h10.3c0.556-0.004,1.031,0.188,1.425,0.575
			c0.387,0.394,0.579,0.869,0.575,1.425c0.004,0.557-0.188,1.031-0.575,1.426c-0.394,0.387-0.869,0.578-1.425,0.574h-10.3V233.2
			c0.004,0.556-0.188,1.03-0.575,1.425c-0.394,0.387-0.869,0.578-1.425,0.575c-0.556,0.003-1.031-0.188-1.425-0.575
			c-0.388-0.395-0.579-0.869-0.575-1.425V222.85H105.4c-0.557,0.004-1.031-0.188-1.426-0.574c-0.387-0.395-0.578-0.869-0.574-1.426
			c-0.004-0.556,0.188-1.031,0.574-1.425c0.395-0.387,0.869-0.579,1.426-0.575h10.35V208.45
			C115.746,207.895,115.938,207.419,116.325,207.025z M182.575,157.425c0.394-0.387,0.869-0.579,1.425-0.575
			c0.556-0.004,1.031,0.188,1.425,0.575c0.387,0.394,0.579,0.869,0.575,1.425v7.9h7.9c0.556-0.004,1.03,0.188,1.425,0.575
			c0.387,0.394,0.578,0.869,0.575,1.425c0.003,0.556-0.188,1.031-0.575,1.425c-0.395,0.387-0.869,0.579-1.425,0.575H186v7.9
			c0.004,0.556-0.188,1.031-0.575,1.425c-0.394,0.387-0.869,0.578-1.425,0.575c-0.556,0.003-1.031-0.188-1.425-0.575
			c-0.388-0.395-0.579-0.869-0.575-1.425v-7.9h-7.85c-0.557,0.003-1.031-0.188-1.426-0.575c-0.387-0.394-0.578-0.869-0.574-1.425
			c-0.004-0.556,0.188-1.031,0.574-1.425c0.395-0.387,0.869-0.579,1.426-0.575H182v-7.9
			C181.996,158.294,182.188,157.819,182.575,157.425z M216.3,60c-0.215-0.793-0.114-1.551,0.3-2.275
			c0.407-0.725,1.007-1.2,1.801-1.425c0.794-0.216,1.553-0.115,2.274,0.3c0.724,0.405,1.198,1.005,1.425,1.8l0.45,1.8
			c0.215,0.793,0.115,1.551-0.3,2.275c-0.406,0.724-1.007,1.199-1.8,1.425c-0.795,0.216-1.553,0.116-2.275-0.3
			c-0.724-0.405-1.198-1.005-1.425-1.8L216.3,60z M180.2,37.15l-0.025,0.025c-6.464,6.591-8.905,13.107-7.325,19.55
			c1.838,6.302,7.205,10.677,16.101,13.125h-0.025c9.859,2.614,20.769,2.331,32.726-0.85c2.479-0.69,7.111-2.374,13.899-5.05
			c0.718-0.282,1.434-0.29,2.15-0.025L249,68.1l-2.45-9c-0.151-0.56-0.144-1.118,0.025-1.675c0.167-0.543,0.467-1.001,0.899-1.375
			c0.979-0.85,1.913-1.7,2.801-2.55c0.016-0.017,0.032-0.034,0.05-0.05c6.53-6.614,9.022-13.123,7.475-19.525
			c-1.841-6.36-7.282-10.752-16.325-13.175h-0.024c-9.697-2.643-20.539-2.359-32.525,0.85
			C197.007,24.779,187.432,29.962,180.2,37.15z M212.175,33c-1.441,0.384-2.566,1.218-3.375,2.5c-0.665,1.275-0.831,2.642-0.5,4.1
			c0.177,0.486,0.311,0.953,0.4,1.4c0.161,0.809,0.011,1.559-0.45,2.25c-0.459,0.697-1.092,1.13-1.9,1.3
			c-0.809,0.162-1.559,0.012-2.25-0.45c-0.695-0.458-1.129-1.091-1.3-1.9c-0.039-0.199-0.098-0.407-0.175-0.625
			c-0.027-0.092-0.053-0.184-0.075-0.275c-0.804-3.068-0.487-5.935,0.95-8.6c0.024-0.038,0.05-0.08,0.075-0.125
			c1.653-2.78,4.003-4.572,7.05-5.375c3.042-0.804,5.909-0.42,8.6,1.15c2.869,1.549,4.711,3.874,5.525,6.975V35.3
			c0.85,3.088,0.44,6.021-1.225,8.8c-0.024,0.042-0.049,0.084-0.075,0.125c-0.956,1.693-2.223,3.01-3.8,3.95l0.024-0.025
			c-0.1,0.063-0.199,0.121-0.3,0.175l0.825,3.15c0.206,0.801,0.098,1.559-0.325,2.275c-0.419,0.719-1.027,1.186-1.825,1.4
			c-0.791,0.207-1.541,0.099-2.25-0.325c-0.719-0.412-1.186-1.012-1.399-1.8l-1.5-5.7c-0.144-0.522-0.144-1.048,0-1.575
			c0.151-0.523,0.427-0.974,0.824-1.35c0.394-0.384,0.852-0.642,1.375-0.775c0.516-0.121,0.991-0.313,1.426-0.575l0.024-0.025
			c0.716-0.437,1.291-1.044,1.726-1.825c0.024-0.038,0.049-0.079,0.074-0.125c0.805-1.318,1.005-2.709,0.601-4.175v-0.025
			c-0.386-1.433-1.243-2.507-2.575-3.225c-0.039-0.025-0.08-0.05-0.125-0.075C214.977,32.808,213.618,32.616,212.175,33z
			 M167.05,58.275c-2.418-8.415,0.532-16.857,8.851-25.325l0.024-0.025c7.898-7.933,18.382-13.641,31.45-17.125
			c13.146-3.523,25.038-3.807,35.675-0.85c11.61,3.116,18.46,8.925,20.55,17.425c2.384,8.38-0.642,16.821-9.074,25.325
			c-0.019,0.014-0.035,0.031-0.051,0.05c-0.529,0.513-1.071,1.029-1.625,1.55l3.5,12.85c0.198,0.74,0.123,1.457-0.225,2.15
			c-0.342,0.686-0.867,1.169-1.575,1.45c-0.716,0.282-1.433,0.29-2.149,0.025l-15.726-5.8c-6.495,2.543-10.97,4.152-13.425,4.825
			h-0.025c-13.099,3.484-25.049,3.768-35.85,0.85h-0.025C175.911,72.497,169.145,66.706,167.05,58.275z M499.75,59.95
			c0.693-0.453,1.443-0.595,2.25-0.425c0.809,0.163,1.442,0.587,1.9,1.275c0.453,0.692,0.596,1.442,0.425,2.25
			c-0.164,0.808-0.589,1.441-1.275,1.9l-19.899,13.1c-0.693,0.453-1.443,0.595-2.25,0.425c-0.81-0.163-1.442-0.587-1.9-1.275
			c-0.454-0.692-0.596-1.442-0.425-2.25c0.163-0.808,0.589-1.441,1.274-1.9L499.75,59.95z M491.15,37.175
			c0.816-0.098,1.55,0.111,2.199,0.625c0.651,0.514,1.026,1.18,1.125,2c0.097,0.816-0.111,1.549-0.625,2.2L474.4,66.95
			c-0.516,0.65-1.182,1.025-2,1.125c-0.817,0.098-1.551-0.111-2.2-0.625c-0.651-0.513-1.026-1.18-1.125-2
			c-0.097-0.816,0.112-1.549,0.625-2.2l19.45-24.95C489.665,37.649,490.331,37.274,491.15,37.175z M455.45,61.125
			c-0.438-0.71-0.563-1.469-0.375-2.275l5.1-21.5c0.194-0.801,0.644-1.417,1.351-1.85c0.71-0.439,1.468-0.564,2.274-0.375
			c0.801,0.193,1.417,0.643,1.851,1.35c0.438,0.71,0.563,1.469,0.375,2.275l-5.101,21.5c-0.193,0.801-0.644,1.417-1.35,1.85
			c-0.71,0.439-1.469,0.564-2.275,0.375C456.5,62.282,455.883,61.832,455.45,61.125z" fill="#9BA8D5" clip-rule="evenodd" fill-rule="evenodd"></path>
	</g>
	<g>
		<linearGradient y2="95.6006" x2="403.2344" y1="315.1582" x1="403.2344" gradientUnits="userSpaceOnUse" id="SVGID_1_">
			<stop style="stop-color:#478CCB" offset="0"></stop>
			<stop style="stop-color:#6AABDE" offset="1"></stop>
		</linearGradient>
		<path d="M465.1,263.2c0.834,0,1.551,0.3,2.15,0.899
			c0.566,0.566,0.85,1.268,0.85,2.101c0,1.167-0.033,2.333-0.1,3.5v0.05c-0.634,7.566-3.417,14.45-8.35,20.65
			c-0.5,0.633-1.167,1-2,1.1c-0.834,0.066-1.567-0.15-2.2-0.65c-0.667-0.5-1.033-1.166-1.101-2c-0.1-0.833,0.101-1.566,0.601-2.199
			c4.133-5.234,6.483-11.033,7.05-17.4c0.066-1,0.1-2.017,0.1-3.05c0-0.833,0.301-1.534,0.9-2.101
			C463.566,263.5,464.267,263.2,465.1,263.2z M572.75,277.2c0.058-0.821,0.399-1.505,1.025-2.05c0.625-0.552,1.351-0.802,2.175-0.75
			c0.822,0.057,1.505,0.398,2.05,1.024c0.551,0.626,0.801,1.351,0.75,2.175l-1.3,19c-0.058,0.822-0.399,1.506-1.025,2.051
			c-0.626,0.551-1.351,0.801-2.175,0.75c-0.822-0.058-1.506-0.399-2.05-1.025c-0.551-0.625-0.801-1.351-0.75-2.175L572.75,277.2z
			 M332.15,268.475c0.545-0.626,1.229-0.968,2.05-1.024c0.825-0.051,1.55,0.199,2.175,0.75c0.626,0.547,0.968,1.23,1.025,2.05
			l0.75,10.7c0.05,0.822-0.2,1.548-0.75,2.175c-0.546,0.625-1.229,0.967-2.051,1.025l-13,0.925l0.351,5.3
			c0.05,0.828-0.2,1.553-0.75,2.175c-0.556,0.619-1.247,0.952-2.075,1c-0.826,0.05-1.552-0.2-2.175-0.75
			c-0.618-0.557-0.952-1.248-1-2.075l-0.55-8.25c-0.048-0.815,0.202-1.532,0.75-2.149c0.545-0.623,1.229-0.965,2.05-1.025l13-0.925
			l-0.55-7.725C331.35,269.823,331.6,269.098,332.15,268.475z M278,250.45l-2.65-37.425l-15.125,38.649L278,250.45z M415.2,135.55
			h-0.05c-2.7,0-5,0.9-6.9,2.7h-0.05c-1.834,1.767-2.75,3.883-2.75,6.35v116.65c0,2.467,0.916,4.584,2.75,6.35h0.05
			c1.9,1.801,4.2,2.7,6.9,2.7h0.05c2.7,0,5-0.899,6.899-2.7v-0.05c1.867-1.733,2.801-3.833,2.801-6.3V144.6
			c0-2.467-0.934-4.583-2.801-6.35C420.2,136.45,417.9,135.55,415.2,135.55z M426.25,133.9c3.1,2.967,4.65,6.534,4.65,10.7v116.65
			c0,4.2-1.551,7.767-4.65,10.7h-0.05c-3.033,2.899-6.7,4.35-11,4.35h-0.05c-4.301,0-7.983-1.45-11.051-4.35
			c-3.1-2.934-4.649-6.5-4.649-10.7V144.6c0-4.167,1.55-7.733,4.649-10.7v-0.05c3.067-2.867,6.75-4.3,11.051-4.3h0.05
			c4.3,0,7.967,1.45,11,4.35H426.25z M462.1,140.2c-0.033-10.4-4.583-19.384-13.649-26.95c-9.233-7.767-20.317-11.65-33.25-11.65
			c-12.934,0-24.033,3.883-33.3,11.65c-9.034,7.566-13.567,16.55-13.601,26.95v126c0,1,0.05,2.017,0.15,3.05
			c0.533,6.367,2.866,12.166,7,17.4c1.833,2.266,3.967,4.434,6.399,6.5c1.033,0.833,2.101,1.616,3.2,2.35l0.05,0.05
			c8.567,5.8,18.601,8.684,30.101,8.65c11.5,0,21.55-2.884,30.149-8.65c0.667-0.5,1.417-0.667,2.25-0.5
			c0.801,0.167,1.434,0.601,1.9,1.3c0.467,0.667,0.616,1.417,0.45,2.25c-0.167,0.801-0.584,1.434-1.25,1.9
			c-9.567,6.467-20.733,9.7-33.5,9.7c-12.767-0.034-23.917-3.267-33.45-9.7c-1.233-0.8-2.45-1.684-3.65-2.65
			c-0.033-0.033-0.066-0.05-0.1-0.05c-2.8-2.366-5.217-4.833-7.25-7.399c-4.934-6.2-7.7-13.084-8.3-20.65
			c-0.101-1.166-0.15-2.35-0.15-3.55v-126c-0.033-12.2,5.217-22.717,15.75-31.55c10.367-8.7,22.75-13.05,37.15-13.05
			c14.399,0,26.767,4.35,37.1,13.05c10.566,8.833,15.833,19.35,15.8,31.55v115.05c0,0.834-0.283,1.55-0.85,2.15
			c-0.6,0.566-1.316,0.85-2.15,0.85c-0.833,0-1.533-0.283-2.1-0.85c-0.6-0.601-0.9-1.316-0.9-2.15V140.2z M553.3,105.125l-0.1-0.025
			l34.45,2.4c0.82,0.055,1.504,0.396,2.05,1.025c0.554,0.629,0.804,1.354,0.75,2.175l-10.7,152.7
			c-0.066,0.832-0.417,1.524-1.05,2.074c-0.627,0.543-1.353,0.785-2.175,0.726c-0.823-0.066-1.507-0.417-2.051-1.05
			c-0.542-0.621-0.783-1.338-0.725-2.15l10.5-149.7l-31.45-2.2c-0.028-0.008-0.062-0.016-0.1-0.025l-13.726-1.45l-1.899,11.7
			L537,122.25c-0.032,0.301-0.107,0.593-0.225,0.875c-0.493,1.229-0.985,2.255-1.476,3.075c-1.18,2.877-2.78,5.51-4.8,7.9
			l0.075-0.125c-4.301,5.743-10.326,8.676-18.075,8.8l-1.775,25.625c13.631,0.444,25.248-2.798,34.851-9.725
			c0.646-0.467,1.363-0.65,2.149-0.55c0.789,0.1,1.439,0.458,1.95,1.075c0.506,0.614,0.731,1.314,0.675,2.1L540.2,306.8l30.35,2.125
			l0.2-3.274c0.058-0.821,0.398-1.504,1.025-2.051c0.624-0.551,1.35-0.801,2.175-0.75c0.821,0.057,1.504,0.398,2.05,1.025
			c0.55,0.625,0.8,1.35,0.75,2.175l-0.4,6.3c-0.053,0.821-0.395,1.505-1.024,2.051c-0.632,0.555-1.365,0.805-2.2,0.75l-36.35-2.551
			c-0.824-0.061-1.508-0.402-2.051-1.024c-0.54-0.624-0.781-1.349-0.725-2.175l9.925-142.525
			c-10.332,5.898-22.54,8.357-36.625,7.375c-0.82-0.058-1.504-0.4-2.05-1.025c-0.551-0.625-0.801-1.35-0.75-2.175l2.2-31.55
			c0.055-0.82,0.396-1.504,1.024-2.05c0.63-0.554,1.354-0.804,2.176-0.75c6.924,0.486,12.232-1.639,15.925-6.375
			c0.035-0.042,0.068-0.083,0.1-0.125c1.655-1.952,2.955-4.11,3.9-6.475c0.068-0.164,0.152-0.322,0.25-0.475
			c0.318-0.515,0.635-1.156,0.95-1.925l0.074-0.725c0.006-0.072,0.015-0.147,0.025-0.225l2.35-14.5c0.13-0.78,0.514-1.414,1.15-1.9
			c0.63-0.484,1.338-0.684,2.125-0.6L553.3,105.125z M255.9,258c-0.69,0.047-1.324-0.128-1.9-0.525
			c-0.577-0.398-0.969-0.932-1.175-1.6c-0.206-0.664-0.181-1.322,0.075-1.975l21.699-55.5c0.257-0.649,0.689-1.149,1.301-1.5
			c0.61-0.354,1.26-0.479,1.949-0.375c0.689,0.11,1.272,0.428,1.75,0.949c0.481,0.519,0.748,1.127,0.801,1.825l3.8,53.75
			c0.059,0.813-0.183,1.53-0.726,2.15c-0.551,0.633-1.242,0.983-2.074,1.05L255.9,258z M217.075,248.3
			c0.009-0.032,0.018-0.065,0.024-0.1L269.9,112.95l0.024-0.025c3.761-9.446,11.369-13.671,22.825-12.675
			c0.046,0.007,0.097,0.016,0.15,0.025c11.234,1.54,17.134,7.215,17.699,17.025l9.15,130.226l12.975-0.926
			c0.833-0.057,1.566,0.193,2.2,0.75c0.633,0.553,0.974,1.244,1.025,2.075l0.45,6.65c0.049,0.827-0.201,1.553-0.75,2.175
			c-0.556,0.619-1.247,0.952-2.075,1c-0.827,0.051-1.552-0.199-2.175-0.75c-0.619-0.557-0.952-1.248-1-2.075l-0.25-3.6
			l-12.976,0.925c-0.825,0.062-1.55-0.18-2.175-0.725c-0.635-0.55-0.985-1.242-1.05-2.075L304.6,117.7
			c-0.563-6.547-4.679-10.364-12.35-11.45c-8.345-0.737-13.937,2.237-16.775,8.925l0.025-0.025L222.7,250.4l0.024-0.101
			c-0.552,1.589-0.777,3.163-0.675,4.726l1.3,18.1v0.05c0.071,1.413,0.38,2.722,0.926,3.925c0.827,1.752,2.11,3.319,3.85,4.7
			c3.402,2.304,7.077,3.319,11.025,3.05l44.05-3.05c0.824-0.05,1.549,0.2,2.175,0.75c0.625,0.546,0.967,1.229,1.025,2.05L287.8,305
			l29.726-2.1l-0.176-2.625c-0.059-0.822,0.183-1.548,0.726-2.176c0.543-0.633,1.227-0.983,2.05-1.05
			c0.823-0.06,1.548,0.183,2.175,0.726c0.633,0.543,0.983,1.226,1.05,2.05l0.4,5.649c0.061,0.831-0.181,1.564-0.725,2.2
			c-0.55,0.627-1.242,0.968-2.075,1.025l-35.75,2.5c-0.826,0.052-1.551-0.198-2.175-0.75c-0.628-0.545-0.97-1.229-1.025-2.05
			l-1.4-20.4l-41.05,2.85c-5.384,0.393-10.384-1.016-15-4.225c-0.057-0.041-0.114-0.083-0.175-0.125
			c-2.527-2.02-4.377-4.318-5.55-6.9c-0.854-1.863-1.347-3.889-1.476-6.074l-1.3-18.051v-0.024
			C215.889,253.086,216.23,250.703,217.075,248.3z" fill="url(#SVGID_1_)" clip-rule="evenodd" fill-rule="evenodd"></path>
	</g>
</g>
</svg>
