<?xml version="1.0" standalone="no"?><!DOCTYPE svg PUBLIC "-//W3C//DTD SVG 1.1//EN" "http://www.w3.org/Graphics/SVG/1.1/DTD/svg11.dtd"><svg t="1667880133936" class="icon" viewBox="0 0 1024 1024" version="1.1" xmlns="http://www.w3.org/2000/svg" p-id="6780" xmlns:xlink="http://www.w3.org/1999/xlink" width="128" height="128"><path d="M905.615621 524.965532c0-132.931319-65.364876-256.560237-174.885151-331.940698v-0.031008c-1.24032-0.868224-2.356608-1.922496-3.627936-2.790721l-0.248064 0.403105a30.573893 30.573893 0 0 0-18.480771-5.891522 31.256069 31.256069 0 0 0-29.953734 32.465382 30.635909 30.635909 0 0 0 14.232675 24.341284l-0.124032 0.186049a340.839996 340.839996 0 0 1 151.071002 283.289137c0 185.272833-148.559354 336.188795-332.777914 340.653948l39.194119-39.194119a30.759941 30.759941 0 0 0 11.752034-22.821892 31.225061 31.225061 0 0 0-29.953734-32.465381 30.728933 30.728933 0 0 0-23.876164 10.356673l-0.372096-0.372096-116.5901 116.652117 116.90018 113.582324 0.31008-0.31008a30.697925 30.697925 0 0 0 23.6281 13.147394 31.256069 31.256069 0 0 0 32.403366-30.015749 30.914981 30.914981 0 0 0-13.860578-26.542853l0.744192-0.7752-40.341415-39.225127c218.451398-4.434145 394.855941-183.164288 394.855941-402.669959M487.410652 184.652672l-38.139847 37.085575 0.744192 0.7752a30.759941 30.759941 0 0 0-13.860578 26.542853c0.682176 17.240451 15.162915 30.697925 32.403365 29.984741a30.697925 30.697925 0 0 0 23.628101-13.116386l0.279072 0.31008 116.869172-113.582324-116.528084-116.590101-0.372096 0.31008a30.697925 30.697925 0 0 0-23.907173-10.325665c-17.209443 0.651168-30.604901 15.193923-29.953733 32.434373a30.945989 30.945989 0 0 0 11.876066 22.883908l41.054599 41.085608C274.323638 128.373143 99.407479 306.42111 99.407479 524.99654c0 134.109624 66.450156 259.071886 177.675872 334.266299l34.728966-51.411273a340.964028 340.964028 0 0 1-150.388827-282.855026c0-182.947232 144.931417-332.343802 325.987162-340.343868" p-id="6781"></path></svg>