<?xml version="1.0" standalone="no"?><!DOCTYPE svg PUBLIC "-//W3C//DTD SVG 1.1//EN" "http://www.w3.org/Graphics/SVG/1.1/DTD/svg11.dtd"><svg t="1667880188048" class="icon" viewBox="0 0 1024 1024" version="1.1" xmlns="http://www.w3.org/2000/svg" p-id="8497" xmlns:xlink="http://www.w3.org/1999/xlink" width="128" height="128"><path d="M512 512m-480.0512 0a480.0512 480.0512 0 1 0 960.1024 0 480.0512 480.0512 0 1 0-960.1024 0Z" fill="#F0EEE2" p-id="8498"></path><path d="M512 512m-79.9744 0a79.9744 79.9744 0 1 0 159.9488 0 79.9744 79.9744 0 1 0-159.9488 0Z" fill="#BBAA9C" p-id="8499"></path><path d="M975.9744 576h-48.0256c-8.8064 0.2048-15.7696 7.5776-15.5648 16.384 0.2048 8.4992 7.0656 15.36 15.5648 15.5648h48.0256c8.8064-0.2048 15.7696-7.5776 15.5648-16.384-0.2048-8.4992-6.9632-15.36-15.5648-15.5648z m-655.9744 15.9744h-31.9488c-8.8064 0-15.9744 7.168-15.9744 15.9744s7.168 15.9744 15.9744 15.9744h31.9488c8.8064 0 15.9744-7.168 15.9744-15.9744s-7.168-15.9744-15.9744-15.9744z m416.0512-143.9744h-31.9488c-8.8064 0-15.9744 7.168-15.9744 15.9744s7.168 15.9744 15.9744 15.9744h31.9488c8.8064 0 15.9744-7.168 15.9744-15.9744s-7.168-15.9744-15.9744-15.9744zM640 640h-96.0512c-8.8064 0.2048-15.7696 7.5776-15.5648 16.384 0.2048 8.4992 7.0656 15.36 15.5648 15.5648H640c8.8064 0.2048 16.1792-6.7584 16.384-15.5648s-6.7584-16.1792-15.5648-16.384h-0.8192z m143.9744-527.9744H671.9488c-8.8064 0.2048-15.7696 7.5776-15.5648 16.384 0.2048 8.4992 7.0656 15.36 15.5648 15.5648h112.0256c8.8064 0.2048 16.1792-6.7584 16.384-15.5648s-6.7584-16.1792-15.5648-16.384h-0.8192z m-384 207.9744h-96.0512c-8.8064 0-15.9744 7.168-15.9744 15.9744s7.168 15.9744 15.9744 15.9744h96.0512c8.8064 0 15.9744-7.168 15.9744-15.9744s-7.168-15.9744-15.9744-15.9744zM176.0256 768h-64c-8.8064 0-15.9744 7.168-15.9744 15.9744s7.168 15.9744 15.9744 15.9744h64c8.8064 0 15.9744-7.168 15.9744-15.9744s-7.168-15.9744-15.9744-15.9744z m607.9488 0H768c-8.8064 0-15.9744 7.168-15.9744 15.9744s7.168 15.9744 15.9744 15.9744h15.9744c8.8064 0 15.9744-7.168 15.9744-15.9744s-7.168-15.9744-15.9744-15.9744z m-335.9744 0c-8.8064 0-15.9744 7.168-15.9744 15.9744s7.168 15.9744 15.9744 15.9744 15.9744-7.168 15.9744-15.9744-7.168-15.9744-15.9744-15.9744z" fill="#D8D5BA" p-id="8500"></path><path d="M512 847.9744c-8.8064 0-15.9744 7.168-15.9744 15.9744s7.168 15.9744 15.9744 15.9744 15.9744-7.168 15.9744-15.9744-7.168-15.9744-15.9744-15.9744z m-168.0384-45.056c-7.68-4.4032-17.408-1.7408-21.8112 5.8368s-1.7408 17.408 5.8368 21.8112c7.68 4.4032 17.408 1.8432 21.8112-5.8368 4.5056-7.5776 1.8432-17.3056-5.8368-21.8112z m-15.9744-609.5872c-7.68 4.4032-10.24 14.2336-5.8368 21.8112s14.2336 10.24 21.8112 5.8368c7.68-4.4032 10.24-14.2336 5.8368-21.8112-4.4032-7.68-14.1312-10.24-21.8112-5.8368zM159.9488 496.0256c-8.8064 0-15.9744 7.168-15.9744 15.9744s7.168 15.9744 15.9744 15.9744 15.9744-7.168 15.9744-15.9744c0.1024-8.8064-7.0656-15.9744-15.9744-15.9744z m39.2192 178.176c-7.68 4.4032-10.24 14.2336-5.8368 21.8112 4.4032 7.68 14.2336 10.24 21.8112 5.8368 7.68-4.4032 10.24-14.2336 5.8368-21.8112-4.4032-7.68-14.1312-10.3424-21.8112-5.8368z m15.9744-352.0512c-7.68-4.4032-17.408-1.7408-21.8112 5.8368-4.4032 7.68-1.7408 17.408 5.8368 21.8112 7.68 4.4032 17.408 1.8432 21.8112-5.8368 4.5056-7.5776 1.8432-17.408-5.8368-21.8112z m648.9088 173.8752c-8.8064 0-15.9744 7.168-15.9744 15.9744s7.168 15.9744 15.9744 15.9744 15.9744-7.168 15.9744-15.9744-7.168-15.9744-15.9744-15.9744z m-39.2192 178.176c-7.68-4.4032-17.408-1.7408-21.8112 5.8368-4.4032 7.68-1.7408 17.408 5.8368 21.8112 7.68 4.4032 17.408 1.8432 21.8112-5.8368 4.5056-7.68 1.8432-17.408-5.8368-21.8112 0-0.1024 0-0.1024 0 0zM512 0C229.2736 0 0 229.2736 0 512s229.2736 512 512 512 512-229.2736 512-512S794.7264 0 512 0z m0 960C264.6016 960 64 759.3984 64 512S264.6016 64 512 64 960 264.6016 960 512 759.3984 960 512 960z m186.9824-261.0176c6.2464-6.2464 6.2464-16.384 0-22.6304L590.2336 567.6032c30.72-43.2128 20.5824-103.2192-22.6304-133.9392-11.776-8.3968-25.2928-14.0288-39.6288-16.384V159.9488c0-8.8064-7.168-15.9744-15.9744-15.9744s-15.9744 7.168-15.9744 15.9744v257.3312c-52.224 8.8064-87.4496 58.368-78.6432 110.6944s58.368 87.4496 110.6944 78.6432c14.2336-2.4576 27.7504-7.9872 39.5264-16.384l108.7488 108.7488c6.2464 6.2464 16.384 6.2464 22.6304 0zM512 576c-35.328 0-64-28.672-64-64s28.672-64 64-64 64 28.672 64 64-28.672 64-64 64z m184.0128-382.6688c-7.68-4.4032-17.408-1.7408-21.8112 5.8368-4.4032 7.68-1.7408 17.408 5.8368 21.8112 7.68 4.4032 17.408 1.8432 21.8112-5.8368 4.4032-7.68 1.8432-17.408-5.8368-21.8112z m-15.9744 609.6896c-7.68 4.4032-10.24 14.2336-5.8368 21.8112 4.4032 7.68 14.2336 10.24 21.8112 5.8368 7.68-4.4032 10.24-14.2336 5.8368-21.8112-4.4032-7.68-14.2336-10.3424-21.8112-5.8368z m128.8192-480.8704c-7.68 4.4032-10.24 14.2336-5.8368 21.8112 4.4032 7.68 14.2336 10.24 21.8112 5.8368 7.68-4.4032 10.24-14.2336 5.8368-21.8112-4.4032-7.68-14.1312-10.24-21.8112-5.8368z" fill="#5F4E56" p-id="8501"></path></svg>