<?xml version="1.0" standalone="no"?><!DOCTYPE svg PUBLIC "-//W3C//DTD SVG 1.1//EN" "http://www.w3.org/Graphics/SVG/1.1/DTD/svg11.dtd"><svg t="1638256499617" class="icon" viewBox="0 0 1024 1024" version="1.1" xmlns="http://www.w3.org/2000/svg" p-id="12090" width="128" height="128" xmlns:xlink="http://www.w3.org/1999/xlink"><defs><style type="text/css"></style></defs><path d="M598.644 1017.432H85.124c-46.76 0-84.8-38.04-84.8-84.816V344.416c0-24.08 19.512-43.608 43.608-43.608s43.608 19.52 43.608 43.608v585.808h511.12a43.6 43.6 0 1 1-0.016 87.208z m215.616-443.616a43.608 43.608 0 0 1-43.608-43.616V87.2H338.724a43.6 43.6 0 0 1 0-87.2h434.336c46.768 0 84.808 38.04 84.808 84.808v445.392a43.624 43.624 0 0 1-43.608 43.616zM773.06 87.2h0.144-0.144z" fill="#17A29E" p-id="12091"></path><path d="M333.348 424.656H71.732a43.6 43.6 0 0 1-43.608-43.608 43.6 43.6 0 0 1 43.608-43.608h261.616a43.608 43.608 0 0 1 0 87.216zM966.836 864.256H661.604a43.608 43.608 0 0 1 0-87.216h305.232a43.616 43.616 0 0 1 0 87.216z" fill="#17A29E" p-id="12092"></path><path d="M814.22 1016.872a43.608 43.608 0 0 1-43.608-43.616V668.032a43.6 43.6 0 1 1 87.216 0v305.224a43.608 43.608 0 0 1-43.608 43.616zM337.18 423.712a43.608 43.608 0 0 1-43.608-43.608V52.456a43.608 43.608 0 0 1 87.216 0v327.648c0 24.08-19.52 43.608-43.608 43.608z" fill="#17A29E" p-id="12093"></path><path d="M44.116 380.224a43.6 43.6 0 0 1-30.744-74.512L307.98 12.696a43.6 43.6 0 1 1 61.512 61.832L74.876 367.528a43.464 43.464 0 0 1-30.76 12.696z" fill="#17A29E" p-id="12094"></path></svg>