<?xml version="1.0" standalone="no"?><!DOCTYPE svg PUBLIC "-//W3C//DTD SVG 1.1//EN" "http://www.w3.org/Graphics/SVG/1.1/DTD/svg11.dtd"><svg t="1609320369961" class="icon" viewBox="0 0 1024 1024" version="1.1" xmlns="http://www.w3.org/2000/svg" p-id="7669" xmlns:xlink="http://www.w3.org/1999/xlink" width="128" height="128"><defs><style type="text/css"></style></defs><path d="M908.213711 851.89916a95.802801 95.802801 0 0 1-95.229131 95.229131H192.274216a95.802801 95.802801 0 0 1-95.229132-95.229131V229.467787A95.802801 95.802801 0 0 1 192.274216 133.091317h377.474509V57.366947H192.274216a172.10084 172.10084 0 0 0-172.100841 172.10084v622.431373a172.10084 172.10084 0 0 0 172.100841 172.10084h620.710364a172.10084 172.10084 0 0 0 169.232493-172.10084V370.590476h-74.003362z" p-id="7670"></path><path d="M543.35993 629.315406l366.57479-365.427451-174.969188-174.969187-367.148459 365.42745 175.542857 174.969188zM981.643403 194.47395a65.971989 65.971989 0 0 0 0-93.508124L899.608669 19.504762a65.398319 65.398319 0 0 0-92.934453 0l-46.467227 45.893557L938.044524 240.941176zM264.556569 742.328291l254.135574-81.461064-180.705883-172.67451-73.429691 254.135574z" p-id="7671"></path></svg>