<?xml version="1.0" standalone="no"?><!DOCTYPE svg PUBLIC "-//W3C//DTD SVG 1.1//EN" "http://www.w3.org/Graphics/SVG/1.1/DTD/svg11.dtd"><svg t="1638256591235" class="icon" viewBox="0 0 1024 1024" version="1.1" xmlns="http://www.w3.org/2000/svg" p-id="13440" width="128" height="128" xmlns:xlink="http://www.w3.org/1999/xlink"><defs><style type="text/css"></style></defs><path d="M512 512m-460.8 0a460.8 460.8 0 1 0 921.6 0 460.8 460.8 0 1 0-921.6 0Z" fill="#FFE5E3" p-id="13441"></path><path d="M298.24 256h389.12c30.72 0 55.04 24.32 55.04 55.04v427.52c0 30.72-24.32 55.04-55.04 55.04H298.24c-30.72 0-55.04-24.32-55.04-55.04v-427.52c0-30.72 24.32-55.04 55.04-55.04z" fill="#FC4F42" p-id="13442"></path><path d="M729.6 704m-140.8 0a140.8 140.8 0 1 0 281.6 0 140.8 140.8 0 1 0-281.6 0Z" fill="#FABEB9" p-id="13443"></path><path d="M697.6 636.16l106.24 62.72c6.4 3.84 7.68 11.52 3.84 17.92-1.28 1.28-2.56 3.84-3.84 3.84l-106.24 62.72c-6.4 3.84-14.08 1.28-17.92-3.84-1.28-2.56-1.28-3.84-1.28-6.4v-126.72c0-7.68 5.12-12.8 12.8-12.8 2.56 1.28 5.12 1.28 6.4 2.56z" fill="#FA8178" p-id="13444"></path><path d="M332.8 640h217.6c14.08 0 25.6 11.52 25.6 25.6s-11.52 25.6-25.6 25.6H332.8c-14.08 0-25.6-11.52-25.6-25.6s11.52-25.6 25.6-25.6zM332.8 358.4h217.6c14.08 0 25.6 11.52 25.6 25.6s-11.52 25.6-25.6 25.6H332.8c-14.08 0-25.6-11.52-25.6-25.6s11.52-25.6 25.6-25.6zM332.8 499.2h217.6c14.08 0 25.6 11.52 25.6 25.6s-11.52 25.6-25.6 25.6H332.8c-14.08 0-25.6-11.52-25.6-25.6s11.52-25.6 25.6-25.6z" fill="#FABEB9" p-id="13445"></path></svg>