<?xml version="1.0" standalone="no"?><!DOCTYPE svg PUBLIC "-//W3C//DTD SVG 1.1//EN" "http://www.w3.org/Graphics/SVG/1.1/DTD/svg11.dtd"><svg t="1638258276221" class="icon" viewBox="0 0 1024 1024" version="1.1" xmlns="http://www.w3.org/2000/svg" p-id="19189" width="128" height="128" xmlns:xlink="http://www.w3.org/1999/xlink"><defs><style type="text/css"></style></defs><path d="M717.7 598.2c-35-29-74.3-51.6-116.8-67.2-5-1.8-9.9-3.5-15-5.1 18.7-10.8 36.2-24.1 51.8-39.9 46.5-46.7 72.2-108.8 72.2-174.8 0-66.1-25.6-128.1-72.2-174.8C591.3 89.7 529.4 64 463.6 64s-127.7 25.7-174.2 72.4c-46.5 46.7-72.2 108.8-72.2 174.8 0 66.1 25.6 128.1 72.2 174.8 16.3 16.3 34.4 30.1 54 41.1-12.2 4.3-24.4 9.2-36.3 14.8-47.3 22.1-89.9 53.5-126.8 93.2-36.3 39.2-64.9 84.3-85 134C74.5 820.4 64 873.9 64 928c0 17.7 14.3 32 31.9 32 17.6 0 31.9-14.3 31.9-32 0-190.2 156.9-357.1 335.7-357.1 77.8 0 153.6 27.3 213.5 76.8 13.6 11.3 33.7 9.3 45-4.3 11.3-13.7 9.3-33.9-4.3-45.2z m-436.6-287c0-101 81.9-183.1 182.5-183.1s182.5 82.2 182.5 183.1-81.9 183.1-182.5 183.1-182.5-82.1-182.5-183.1z" fill="#727272" p-id="19190"></path><path d="M717.6 958.9l-1.1-1.1v0.1L544.7 786l45.1-45.2 127.7 127.7 197.3-197.4 45.2 45.3z" fill="#669F8C" p-id="19191"></path></svg>