<?xml version="1.0" standalone="no"?><!DOCTYPE svg PUBLIC "-//W3C//DTD SVG 1.1//EN" "http://www.w3.org/Graphics/SVG/1.1/DTD/svg11.dtd"><svg t="1609320508242" class="icon" viewBox="0 0 1024 1024" version="1.1" xmlns="http://www.w3.org/2000/svg" p-id="10045" width="128" height="128" xmlns:xlink="http://www.w3.org/1999/xlink"><defs><style type="text/css"></style></defs><path d="M0 0h1024v1024H0V0z" fill="#FFBB4D" p-id="10046"></path><path d="M448 512c58.666667 0 106.666667-48 106.666667-106.666667s-48-106.666667-106.666667-106.666666-106.666667 48-106.666667 106.666666 48 106.666667 106.666667 106.666667z m39.466667 21.333333h-78.933334C324.266667 533.333333 256 601.6 256 685.866667c0 34.133333 27.733333 60.8 60.8 60.8h262.4c34.133333 0 60.8-27.733333 60.8-60.8C640 601.6 571.733333 533.333333 487.466667 533.333333z" fill="#FFFFFF" p-id="10047"></path><path d="M602.666667 448c50.133333 0 90.666667-40.533333 90.666666-90.666667S652.8 266.666667 602.666667 266.666667 512 307.2 512 357.333333s40.533333 90.666667 90.666667 90.666667z m36.266666 21.333333h-71.466666C494.933333 469.333333 437.333333 526.933333 437.333333 598.4c0 28.8 23.466667 52.266667 52.266667 52.266667h227.2c28.8 0 52.266667-23.466667 52.266667-52.266667C768 526.933333 710.4 469.333333 638.933333 469.333333z" fill="#FFFFFF" opacity=".5" p-id="10048"></path><path d="M0 0h1024v1024H0V0z" fill="#5C9EFF" p-id="10049"></path><path d="M304 421.333333h300.8l-32-89.6c-7.466667-21.333333-30.933333-38.4-52.266667-38.4H298.666667c-18.133333 0-28.8 12.8-26.666667 29.866667v172.8c0 18.133333 13.866667 32 32 32v-106.666667z" fill="#FFFFFF" opacity=".5" p-id="10050"></path><path d="M709.333333 357.333333h-437.333333v330.666667c0 23.466667 19.2 42.666667 42.666667 42.666667h394.666666c23.466667 0 42.666667-19.2 42.666667-42.666667v-288c0-23.466667-19.2-42.666667-42.666667-42.666667z m-74.666666 256h-245.333334c-11.733333 0-21.333333-9.6-21.333333-21.333333s9.6-21.333333 21.333333-21.333333h245.333334c11.733333 0 21.333333 9.6 21.333333 21.333333s-9.6 21.333333-21.333333 21.333333z m0-106.666666h-245.333334c-11.733333 0-21.333333-9.6-21.333333-21.333334s9.6-21.333333 21.333333-21.333333h245.333334c11.733333 0 21.333333 9.6 21.333333 21.333333s-9.6 21.333333-21.333333 21.333334z" fill="#FFFFFF" p-id="10051"></path><path d="M389.333333 506.666667h245.333334c11.733333 0 21.333333-9.6 21.333333-21.333334s-9.6-21.333333-21.333333-21.333333h-245.333334c-11.733333 0-21.333333 9.6-21.333333 21.333333s9.6 21.333333 21.333333 21.333334zM634.666667 570.666667h-245.333334c-11.733333 0-21.333333 9.6-21.333333 21.333333s9.6 21.333333 21.333333 21.333333h245.333334c11.733333 0 21.333333-9.6 21.333333-21.333333s-9.6-21.333333-21.333333-21.333333z" fill="#FFFFFF" opacity=".5" p-id="10052"></path><path d="M0 0h1024v1024H0V0z" fill="#FFBB4D" p-id="10053"></path><path d="M576 437.333333H362.666667c-11.733333 0-21.333333 9.6-21.333334 21.333334s9.6 21.333333 21.333334 21.333333h213.333333c11.733333 0 21.333333-9.6 21.333333-21.333333s-9.6-21.333333-21.333333-21.333334zM469.333333 522.666667H362.666667c-11.733333 0-21.333333 9.6-21.333334 21.333333s9.6 21.333333 21.333334 21.333333h106.666666c11.733333 0 21.333333-9.6 21.333334-21.333333s-9.6-21.333333-21.333334-21.333333zM384 608h-21.333333c-11.733333 0-21.333333 9.6-21.333334 21.333333s9.6 21.333333 21.333334 21.333334h21.333333c11.733333 0 21.333333-9.6 21.333333-21.333334s-9.6-21.333333-21.333333-21.333333z" fill="#FFFFFF" opacity=".5" p-id="10054"></path><path d="M742.4 368L536.533333 256c0-1.066667-1.066667-3.2-2.133333-4.266667-4.266667-8.533333-13.866667-11.733333-22.4-8.533333h-1.066667c-8.533333-5.333333-20.266667-2.133333-25.6 7.466667-2.133333 3.2-2.133333 5.333333-2.133333 8.533333L278.4 373.333333c-8.533333 5.333333-11.733333 17.066667-6.4 25.6 5.333333 9.6 17.066667 12.8 25.6 7.466667l215.466667-120.533333 211.2 115.2c8.533333 5.333333 20.266667 2.133333 25.6-7.466667 4.266667-8.533333 2.133333-20.266667-7.466667-25.6z" fill="#FFFFFF" opacity=".5" p-id="10055"></path><path d="M725.333333 352H298.666667c-23.466667 0-42.666667 19.2-42.666667 42.666667v288c0 23.466667 19.2 42.666667 42.666667 42.666666h426.666666c23.466667 0 42.666667-19.2 42.666667-42.666666V394.666667c0-23.466667-19.2-42.666667-42.666667-42.666667zM384 650.666667h-21.333333c-11.733333 0-21.333333-9.6-21.333334-21.333334s9.6-21.333333 21.333334-21.333333h21.333333c11.733333 0 21.333333 9.6 21.333333 21.333333s-9.6 21.333333-21.333333 21.333334z m85.333333-85.333334H362.666667c-11.733333 0-21.333333-9.6-21.333334-21.333333s9.6-21.333333 21.333334-21.333333h106.666666c11.733333 0 21.333333 9.6 21.333334 21.333333s-9.6 21.333333-21.333334 21.333333z m106.666667-85.333333H362.666667c-11.733333 0-21.333333-9.6-21.333334-21.333333s9.6-21.333333 21.333334-21.333334h213.333333c11.733333 0 21.333333 9.6 21.333333 21.333334s-9.6 21.333333-21.333333 21.333333z" fill="#FFFFFF" p-id="10056"></path><path d="M0 0h1024v1024H0V0z" fill="#FF8A98" p-id="10057"></path><path d="M638.933333 442.666667c-9.6-9.6-24.533333-9.6-34.133333 0l-138.666667 138.666666-57.6-57.6c-9.6-9.6-24.533333-9.6-34.133333 0-9.6 9.6-9.6 24.533333 0 34.133334l74.666667 74.666666c9.6 9.6 24.533333 9.6 34.133333 0l155.733333-155.733333c9.6-9.6 9.6-24.533333 0-34.133333z" fill="#FFFFFF" opacity=".5" p-id="10058"></path><path d="M720 352h-416c-23.466667 0-42.666667 19.2-42.666667 42.666667v298.666666c0 23.466667 19.2 42.666667 42.666667 42.666667h416c23.466667 0 42.666667-19.2 42.666667-42.666667V394.666667c0-23.466667-19.2-42.666667-42.666667-42.666667z m-81.066667 124.8L483.2 632.533333c-9.6 9.6-24.533333 9.6-34.133333 0l-74.666667-74.666666c-9.6-9.6-9.6-24.533333 0-34.133334 9.6-9.6 24.533333-9.6 34.133333 0l57.6 57.6 138.666667-138.666666c9.6-9.6 24.533333-9.6 34.133333 0 9.6 9.6 9.6 24.533333 0 34.133333z" fill="#FFFFFF" p-id="10059"></path><path d="M357.333333 298.666667h298.666667c23.466667 0 42.666667 19.2 42.666667 42.666666v10.666667h-384v-10.666667c0-23.466667 19.2-42.666667 42.666666-42.666666z" fill="#FFFFFF" opacity=".5" p-id="10060"></path><path d="M400 256h224c23.466667 0 42.666667 19.2 42.666667 42.666667h-309.333334s19.2-42.666667 42.666667-42.666667z" fill="#FFFFFF" opacity=".25" p-id="10061"></path><path d="M0 0h1024v1024H0V0z" fill="#FFBB4D" p-id="10062"></path><path d="M549.333333 437.333333h-213.333333c-11.733333 0-21.333333 9.6-21.333333 21.333334s9.6 21.333333 21.333333 21.333333h213.333333c11.733333 0 21.333333-9.6 21.333334-21.333333s-9.6-21.333333-21.333334-21.333334zM464 512h-128c-11.733333 0-21.333333 9.6-21.333333 21.333333s9.6 21.333333 21.333333 21.333334h128c11.733333 0 21.333333-9.6 21.333333-21.333334s-9.6-21.333333-21.333333-21.333333zM400 586.666667h-64c-11.733333 0-21.333333 9.6-21.333333 21.333333s9.6 21.333333 21.333333 21.333333h64c11.733333 0 21.333333-9.6 21.333333-21.333333s-9.6-21.333333-21.333333-21.333333z" fill="#FFFFFF" opacity=".5" p-id="10063"></path><path d="M798.933333 485.333333c-9.6-9.6-24.533333-9.6-34.133333 0l-138.666667 138.666667-57.6-57.6c-9.6-9.6-24.533333-9.6-34.133333 0-9.6 9.6-9.6 24.533333 0 34.133333l74.666667 74.666667c9.6 9.6 24.533333 9.6 34.133333 0l155.733333-155.733333c9.6-9.6 9.6-24.533333 0-34.133334z" fill="#FFFFFF" opacity=".5" p-id="10064"></path><path d="M642.133333 675.2c-9.6 9.6-24.533333 9.6-34.133333 0l-74.666667-74.666667c-9.6-9.6-9.6-24.533333 0-34.133333 9.6-9.6 24.533333-9.6 34.133334 0l57.6 57.6 136.533333-136.533333V394.666667c0-23.466667-19.2-42.666667-42.666667-42.666667h-416c-23.466667 0-42.666667 19.2-42.666666 42.666667v298.666666c0 23.466667 19.2 42.666667 42.666666 42.666667h416c23.466667 0 42.666667-19.2 42.666667-42.666667V555.733333L642.133333 675.2zM336 437.333333h213.333333c11.733333 0 21.333333 9.6 21.333334 21.333334s-9.6 21.333333-21.333334 21.333333h-213.333333c-11.733333 0-21.333333-9.6-21.333333-21.333333s9.6-21.333333 21.333333-21.333334z m64 192h-64c-11.733333 0-21.333333-9.6-21.333333-21.333333s9.6-21.333333 21.333333-21.333333h64c11.733333 0 21.333333 9.6 21.333333 21.333333s-9.6 21.333333-21.333333 21.333333z m64-74.666666h-128c-11.733333 0-21.333333-9.6-21.333333-21.333334s9.6-21.333333 21.333333-21.333333h128c11.733333 0 21.333333 9.6 21.333333 21.333333s-9.6 21.333333-21.333333 21.333334z" fill="#FFFFFF" p-id="10065"></path><path d="M357.333333 298.666667h298.666667c23.466667 0 42.666667 19.2 42.666667 42.666666v10.666667h-384v-10.666667c0-23.466667 19.2-42.666667 42.666666-42.666666z" fill="#FFFFFF" opacity=".5" p-id="10066"></path><path d="M400 256h224c23.466667 0 42.666667 19.2 42.666667 42.666667h-309.333334s19.2-42.666667 42.666667-42.666667z" fill="#FFFFFF" opacity=".25" p-id="10067"></path><path d="M0 0h1024v1024H0V0z" fill="#FF8A98" p-id="10068"></path><path d="M626.133333 522.666667h-5.333333c0-88.533333-73.6-160-165.333333-160-75.733333 0-139.733333 50.133333-158.933334 117.333333h-1.066666c-61.866667 0-112 50.133333-112 112 0 59.733333 46.933333 108.8 106.666666 112h336c50.133333 0 90.666667-40.533333 90.666667-90.666667S676.266667 522.666667 626.133333 522.666667z m-154.666666 39.466666v75.733334c0 12.8-9.6 23.466667-21.333334 23.466666s-21.333333-10.666667-21.333333-23.466666v-75.733334H384l66.133333-78.933333 72.533334 78.933333h-51.2z" fill="#FFFFFF" p-id="10069"></path><path d="M755.2 425.6c0-88.533333-71.466667-160-160-160-52.266667 0-98.133333 25.6-128 64 91.733333 0 168.533333 65.066667 187.733333 151.466667 57.6 10.666667 100.266667 60.8 100.266667 120.533333v5.333333c48-2.133333 85.333333-41.6 85.333333-90.666666 0-48-37.333333-87.466667-85.333333-90.666667zM471.466667 562.133333v75.733334c0 12.8-9.6 23.466667-21.333334 23.466666s-21.333333-10.666667-21.333333-23.466666v-75.733334H384l66.133333-78.933333 72.533334 78.933333h-51.2z" fill="#FFFFFF" opacity=".5" p-id="10070"></path><path d="M0 0h1024v1024H0V0z" fill="#FFBB4D" p-id="10071"></path><path d="M602.666667 464c65.066667 0 117.333333 52.266667 117.333333 117.333333s-52.266667 117.333333-117.333333 117.333334-117.333333-52.266667-117.333334-117.333334 52.266667-117.333333 117.333334-117.333333z" fill="#FFFFFF" opacity=".5" p-id="10072"></path><path d="M656 560h-32v-42.666667c0-11.733333-9.6-21.333333-21.333333-21.333333s-21.333333 9.6-21.333334 21.333333v64c0 11.733333 9.6 21.333333 21.333334 21.333334h53.333333c11.733333 0 21.333333-9.6 21.333333-21.333334s-9.6-21.333333-21.333333-21.333333z" fill="#FFFFFF" p-id="10073"></path><path d="M709.333333 357.333333h-437.333333v330.666667c0 23.466667 19.2 42.666667 42.666667 42.666667h394.666666c23.466667 0 42.666667-19.2 42.666667-42.666667v-288c0-23.466667-19.2-42.666667-42.666667-42.666667z m-320 256c-11.733333 0-21.333333-9.6-21.333333-21.333333s9.6-21.333333 21.333333-21.333333h65.066667c0 3.2-1.066667 7.466667-1.066667 10.666666 0 10.666667 1.066667 21.333333 3.2 32h-67.2z m0-106.666666c-11.733333 0-21.333333-9.6-21.333333-21.333334s9.6-21.333333 21.333333-21.333333h121.6c-14.933333 11.733333-27.733333 26.666667-37.333333 42.666667h-84.266667z m213.333334 192c-65.066667 0-117.333333-52.266667-117.333334-117.333334s52.266667-117.333333 117.333334-117.333333 117.333333 52.266667 117.333333 117.333333-52.266667 117.333333-117.333333 117.333334z" fill="#FFFFFF" p-id="10074"></path><path d="M486.4 570.666667h-97.066667c-11.733333 0-21.333333 9.6-21.333333 21.333333s9.6 21.333333 21.333333 21.333333h100.266667c-3.2-10.666667-4.266667-21.333333-4.266667-32 0-3.2 0-7.466667 1.066667-10.666666zM634.666667 464h-32c18.133333 0 35.2 4.266667 51.2 11.733333-3.2-6.4-10.666667-11.733333-19.2-11.733333zM368 485.333333c0 11.733333 9.6 21.333333 21.333333 21.333334H512c21.333333-25.6 54.4-42.666667 90.666667-42.666667h-213.333334c-11.733333 0-21.333333 9.6-21.333333 21.333333z" fill="#FFFFFF" opacity=".5" p-id="10075"></path><path d="M293.333333 410.666667h307.2l-28.8-78.933334c-7.466667-21.333333-30.933333-38.4-52.266666-38.4H298.666667c-18.133333 0-28.8 12.8-26.666667 29.866667v172.8c0 13.866667 8.533333 25.6 21.333333 29.866667V410.666667z" fill="#FFFFFF" opacity=".5" p-id="10076"></path><path d="M0 0h1024v1024H0V0z" fill="#38E084" p-id="10077"></path><path d="M702.933333 322.133333c-3.2 0-8.533333 0-16-1.066666s-19.2-3.2-37.333333-6.4c-17.066667-3.2-34.133333-8.533333-49.066667-13.866667-36.266667-14.933333-65.066667-29.866667-87.466666-45.866667L501.333333 245.333333l-12.8 9.6c-22.4 16-51.2 30.933333-87.466666 45.866667-14.933333 6.4-30.933333 10.666667-49.066667 13.866667-17.066667 3.2-29.866667 5.333333-37.333333 6.4-7.466667 1.066667-12.8 1.066667-16 1.066666l-21.333334 1.066667v224c0 26.666667 7.466667 54.4 23.466667 83.2 16 28.8 35.2 54.4 58.666667 75.733333s48 38.4 73.6 52.266667C458.666667 772.266667 482.133333 778.666667 501.333333 778.666667c19.2 0 42.666667-6.4 68.266667-20.266667 25.6-13.866667 50.133333-30.933333 73.6-52.266667 23.466667-21.333333 42.666667-45.866667 58.666667-75.733333 16-28.8 23.466667-56.533333 23.466666-83.2v-224l-22.4-1.066667zM394.666667 618.666667c-11.733333 0-21.333333-9.6-21.333334-21.333334s9.6-21.333333 21.333334-21.333333 21.333333 9.6 21.333333 21.333333-9.6 21.333333-21.333333 21.333334z m0-96c-11.733333 0-21.333333-9.6-21.333334-21.333334s9.6-21.333333 21.333334-21.333333 21.333333 9.6 21.333333 21.333333-9.6 21.333333-21.333333 21.333334z m0-85.333334c-11.733333 0-21.333333-9.6-21.333334-21.333333s9.6-21.333333 21.333334-21.333333 21.333333 9.6 21.333333 21.333333-9.6 21.333333-21.333333 21.333333z m202.666666 181.333334H480c-11.733333 0-21.333333-9.6-21.333333-21.333334s9.6-21.333333 21.333333-21.333333h117.333333c11.733333 0 21.333333 9.6 21.333334 21.333333s-9.6 21.333333-21.333334 21.333334z m0-96H480c-11.733333 0-21.333333-9.6-21.333333-21.333334s9.6-21.333333 21.333333-21.333333h117.333333c11.733333 0 21.333333 9.6 21.333334 21.333333s-9.6 21.333333-21.333334 21.333334z m0-85.333334H480c-11.733333 0-21.333333-9.6-21.333333-21.333333s9.6-21.333333 21.333333-21.333333h117.333333c11.733333 0 21.333333 9.6 21.333334 21.333333s-9.6 21.333333-21.333334 21.333333z" fill="#FFFFFF" p-id="10078"></path><path d="M394.666667 394.666667c-11.733333 0-21.333333 9.6-21.333334 21.333333s9.6 21.333333 21.333334 21.333333 21.333333-9.6 21.333333-21.333333-9.6-21.333333-21.333333-21.333333zM394.666667 480c-11.733333 0-21.333333 9.6-21.333334 21.333333s9.6 21.333333 21.333334 21.333334 21.333333-9.6 21.333333-21.333334-9.6-21.333333-21.333333-21.333333zM480 437.333333h117.333333c11.733333 0 21.333333-9.6 21.333334-21.333333s-9.6-21.333333-21.333334-21.333333H480c-11.733333 0-21.333333 9.6-21.333333 21.333333s9.6 21.333333 21.333333 21.333333zM597.333333 480H480c-11.733333 0-21.333333 9.6-21.333333 21.333333s9.6 21.333333 21.333333 21.333334h117.333333c11.733333 0 21.333333-9.6 21.333334-21.333334s-9.6-21.333333-21.333334-21.333333zM394.666667 576c-11.733333 0-21.333333 9.6-21.333334 21.333333s9.6 21.333333 21.333334 21.333334 21.333333-9.6 21.333333-21.333334-9.6-21.333333-21.333333-21.333333zM597.333333 576H480c-11.733333 0-21.333333 9.6-21.333333 21.333333s9.6 21.333333 21.333333 21.333334h117.333333c11.733333 0 21.333333-9.6 21.333334-21.333334s-9.6-21.333333-21.333334-21.333333z" fill="#FFFFFF" opacity=".5" p-id="10079"></path><path d="M778.666667 362.666667s-43.733333-1.066667-32 0c-8.533333 0-36.266667-1.066667-56.533334-4.266667-21.333333-3.2-40.533333-7.466667-58.666666-12.8-42.666667-12.8-77.866667-25.6-103.466667-39.466667L512 298.666667l-9.6 5.333333v88.533333H597.333333c11.733333 0 21.333333 9.6 21.333334 21.333334s-9.6 21.333333-21.333334 21.333333h-94.933333v42.666667H597.333333c11.733333 0 21.333333 9.6 21.333334 21.333333s-9.6 21.333333-21.333334 21.333333h-94.933333v53.333334H597.333333c11.733333 0 21.333333 9.6 21.333334 21.333333s-9.6 21.333333-21.333334 21.333333h-94.933333v158.933334c3.2 0 6.4 1.066667 9.6 1.066666 23.466667 0 50.133333-6.4 81.066667-18.133333 30.933333-11.733333 59.733333-26.666667 87.466666-44.8 27.733333-18.133333 51.2-39.466667 69.333334-65.066667 19.2-24.533333 28.8-49.066667 28.8-71.466666V362.666667z" fill="#FFFFFF" opacity=".5" p-id="10080"></path><path d="M801.066667 402.133333c-4.266667 0-11.733333 0-21.333334-1.066666v176c0 22.4-9.6 46.933333-28.8 71.466666-19.2 24.533333-42.666667 45.866667-69.333333 65.066667-27.733333 18.133333-56.533333 33.066667-87.466667 44.8-29.866667 11.733333-55.466667 17.066667-78.933333 17.066667h3.2c27.733333 0 59.733333-5.333333 96-17.066667 36.266667-11.733333 70.4-25.6 103.466667-42.666667 32-17.066667 59.733333-38.4 82.133333-61.866666 20.266667-22.4 32-45.866667 32-67.2V403.2l-30.933333-1.066667z" fill="#FFFFFF" opacity=".25" p-id="10081"></path><path d="M0 0h1024v1024H0V0z" fill="#FFBB4D" p-id="10082"></path><path d="M717.866667 349.866667L523.733333 256c-12.8-7.466667-28.8-7.466667-41.6 0L288 349.866667c-12.8 7.466667-20.266667 21.333333-20.266667 36.266666v251.733334c0 14.933333 7.466667 28.8 20.266667 36.266666L482.133333 768c12.8 7.466667 28.8 7.466667 41.6 0l194.133334-93.866667c12.8-7.466667 20.266667-21.333333 20.266666-36.266666V386.133333c1.066667-14.933333-7.466667-28.8-20.266666-36.266666zM395.733333 618.666667c-11.733333 0-21.333333-9.6-21.333333-21.333334s9.6-21.333333 21.333333-21.333333 21.333333 9.6 21.333334 21.333333-9.6 21.333333-21.333334 21.333334z m0-96c-11.733333 0-21.333333-9.6-21.333333-21.333334s9.6-21.333333 21.333333-21.333333 21.333333 9.6 21.333334 21.333333-9.6 21.333333-21.333334 21.333334z m0-85.333334c-11.733333 0-21.333333-9.6-21.333333-21.333333s9.6-21.333333 21.333333-21.333333 21.333333 9.6 21.333334 21.333333-9.6 21.333333-21.333334 21.333333z m202.666667 181.333334h-117.333333c-11.733333 0-21.333333-9.6-21.333334-21.333334s9.6-21.333333 21.333334-21.333333h117.333333c11.733333 0 21.333333 9.6 21.333333 21.333333s-9.6 21.333333-21.333333 21.333334z m0-96h-117.333333c-11.733333 0-21.333333-9.6-21.333334-21.333334s9.6-21.333333 21.333334-21.333333h117.333333c11.733333 0 21.333333 9.6 21.333333 21.333333s-9.6 21.333333-21.333333 21.333334z m0-85.333334h-117.333333c-11.733333 0-21.333333-9.6-21.333334-21.333333s9.6-21.333333 21.333334-21.333333h117.333333c11.733333 0 21.333333 9.6 21.333333 21.333333s-9.6 21.333333-21.333333 21.333333z" fill="#FFFFFF" p-id="10083"></path><path d="M395.733333 416m-21.333333 0a21.333333 21.333333 0 1 0 42.666667 0 21.333333 21.333333 0 1 0-42.666667 0Z" fill="#FFFFFF" opacity=".5" p-id="10084"></path><path d="M395.733333 501.333333m-21.333333 0a21.333333 21.333333 0 1 0 42.666667 0 21.333333 21.333333 0 1 0-42.666667 0Z" fill="#FFFFFF" opacity=".5" p-id="10085"></path><path d="M481.066667 437.333333h117.333333c11.733333 0 21.333333-9.6 21.333333-21.333333s-9.6-21.333333-21.333333-21.333333h-117.333333c-11.733333 0-21.333333 9.6-21.333334 21.333333s9.6 21.333333 21.333334 21.333333zM598.4 480h-117.333333c-11.733333 0-21.333333 9.6-21.333334 21.333333s9.6 21.333333 21.333334 21.333334h117.333333c11.733333 0 21.333333-9.6 21.333333-21.333334s-9.6-21.333333-21.333333-21.333333zM395.733333 576c-11.733333 0-21.333333 9.6-21.333333 21.333333s9.6 21.333333 21.333333 21.333334 21.333333-9.6 21.333334-21.333334-9.6-21.333333-21.333334-21.333333zM598.4 576h-117.333333c-11.733333 0-21.333333 9.6-21.333334 21.333333s9.6 21.333333 21.333334 21.333334h117.333333c11.733333 0 21.333333-9.6 21.333333-21.333334s-9.6-21.333333-21.333333-21.333333z" fill="#FFFFFF" opacity=".5" p-id="10086"></path><path d="M517.333333 771.2L778.666667 688c8.533333-3.2 13.866667-10.666667 13.866666-20.266667V427.733333c0-11.733333-9.6-21.333333-22.4-21.333333l-32 1.066667v230.4c0 14.933333-7.466667 28.8-20.266666 36.266666l-200.533334 97.066667" fill="#FFFFFF" opacity=".5" p-id="10087"></path><path d="M822.4 455.466667l-28.8 1.066666v211.2c0 8.533333-5.333333 17.066667-13.866667 20.266667l-262.4 83.2L829.866667 704c8.533333-3.2 13.866667-10.666667 13.866666-20.266667V476.8c0-12.8-9.6-22.4-21.333333-21.333333z" fill="#FFFFFF" opacity=".25" p-id="10088"></path><path d="M0 0h1024v1024H0V0z" fill="#5C9EFF" p-id="10089"></path><path d="M782.933333 386.133333l-248.533333-102.4c-7.466667-3.2-14.933333-4.266667-23.466667-4.266666-7.466667 0-16 1.066667-23.466666 4.266666l-248.533334 102.4c-8.533333 3.2-12.8 10.666667-12.8 19.2s5.333333 16 12.8 19.2l248.533334 102.4c7.466667 3.2 14.933333 4.266667 23.466666 4.266667s16-1.066667 23.466667-4.266667l248.533333-102.4c8.533333-3.2 12.8-10.666667 12.8-19.2 1.066667-8.533333-4.266667-16-12.8-19.2zM782.933333 599.466667L701.866667 565.333333l-166.4 68.266667c-7.466667 3.2-14.933333 4.266667-23.466667 4.266667s-16-1.066667-23.466667-4.266667L322.133333 565.333333l-82.133333 34.133334c-8.533333 3.2-12.8 10.666667-12.8 19.2s5.333333 16 12.8 19.2l248.533333 102.4c7.466667 3.2 14.933333 4.266667 23.466667 4.266666s16-1.066667 23.466667-4.266666l248.533333-102.4c8.533333-3.2 12.8-10.666667 12.8-19.2s-5.333333-16-13.866667-19.2z" fill="#FFFFFF" p-id="10090"></path><path d="M782.933333 492.8L701.866667 458.666667l-166.4 68.266666c-7.466667 3.2-14.933333 4.266667-23.466667 4.266667s-16-1.066667-23.466667-4.266667L322.133333 458.666667l-82.133333 34.133333c-8.533333 3.2-12.8 10.666667-12.8 19.2s5.333333 16 12.8 19.2l248.533333 102.4c7.466667 3.2 14.933333 4.266667 23.466667 4.266667s16-1.066667 23.466667-4.266667l248.533333-102.4c8.533333-3.2 12.8-10.666667 12.8-19.2s-5.333333-16-13.866667-19.2z" fill="#FFFFFF" opacity=".5" p-id="10091"></path><path d="M0 0h1024v1024H0V0z" fill="#5C9EFF" p-id="10092"></path><path d="M538.666667 512V405.333333c0-11.733333-9.6-21.333333-21.333334-21.333333h-106.666666c-11.733333 0-21.333333 9.6-21.333334 21.333333v106.666667c0 11.733333 9.6 21.333333 21.333334 21.333333h106.666666c11.733333 0 21.333333-9.6 21.333334-21.333333z m-32-10.666667h-85.333334v-85.333333h85.333334v85.333333z" fill="#FFFFFF" opacity=".5" p-id="10093"></path><path d="M634.666667 469.333333h-64v32h53.333333v117.333334h-117.333333v-53.333334h-32v64c0 11.733333 9.6 21.333333 21.333333 21.333334h138.666667c11.733333 0 21.333333-9.6 21.333333-21.333334V490.666667c0-11.733333-9.6-21.333333-21.333333-21.333334z" fill="#FFFFFF" opacity=".5" p-id="10094"></path><path d="M421.333333 416h85.333334v85.333333h-85.333334z" fill="#FFFFFF" p-id="10095"></path><path d="M721.066667 390.4h-84.266667c-23.466667 0-41.6-18.133333-41.6-41.6V256H357.333333c-23.466667 0-42.666667 19.2-42.666666 42.666667v405.333333c0 23.466667 19.2 42.666667 42.666666 42.666667h330.666667c23.466667 0 42.666667-19.2 42.666667-42.666667V390.4h-9.6zM389.333333 512V405.333333c0-11.733333 9.6-21.333333 21.333334-21.333333h106.666666c11.733333 0 21.333333 9.6 21.333334 21.333333v106.666667c0 11.733333-9.6 21.333333-21.333334 21.333333h-106.666666c-11.733333 0-21.333333-9.6-21.333334-21.333333z m266.666667 117.333333c0 11.733333-9.6 21.333333-21.333333 21.333334h-138.666667c-11.733333 0-21.333333-9.6-21.333333-21.333334v-64h32v53.333334h117.333333V501.333333h-53.333333v-32h64c11.733333 0 21.333333 9.6 21.333333 21.333334v138.666666z" fill="#FFFFFF" p-id="10096"></path><path d="M595.2 256v92.8c0 22.4 18.133333 41.6 41.6 41.6h93.866667L595.2 256z" fill="#FFFFFF" opacity=".5" p-id="10097"></path><path d="M730.666667 213.333333h-330.666667c-23.466667 0-42.666667 19.2-42.666667 42.666667h237.866667l135.466667 134.4V704c23.466667 0 42.666667-19.2 42.666666-42.666667V256c0-23.466667-19.2-42.666667-42.666666-42.666667z" fill="#FFFFFF" opacity=".25" p-id="10098"></path><path d="M0 0h1024v1024H0V0z" fill="#5C9EFF" p-id="10099"></path><path d="M595.2 256v92.8c0 22.4 18.133333 41.6 41.6 41.6h93.866667L595.2 256z" fill="#FFFFFF" opacity=".5" p-id="10100"></path><path d="M730.666667 213.333333h-330.666667c-23.466667 0-42.666667 19.2-42.666667 42.666667h237.866667l135.466667 134.4V704c23.466667 0 42.666667-19.2 42.666666-42.666667V256c0-23.466667-19.2-42.666667-42.666666-42.666667z" fill="#FFFFFF" opacity=".25" p-id="10101"></path><path d="M704 586.666667h-66.133333c-3.2-8.533333-10.666667-16-19.2-19.2V426.666667c0-6.4-4.266667-10.666667-10.666667-10.666667s-10.666667 4.266667-10.666667 10.666667v140.8c-8.533333 3.2-16 10.666667-19.2 19.2H512c-6.4 0-10.666667 4.266667-10.666667 10.666666s4.266667 10.666667 10.666667 10.666667h66.133333c3.2 8.533333 10.666667 16 19.2 19.2V714.666667c0 6.4 4.266667 10.666667 10.666667 10.666666s10.666667-4.266667 10.666667-10.666666v-87.466667c8.533333-3.2 16-10.666667 19.2-19.2H704c6.4 0 10.666667-4.266667 10.666667-10.666667s-5.333333-10.666667-10.666667-10.666666zM350.933333 426.666667L266.666667 650.666667h53.333333l17.066667-51.2h83.2L437.333333 650.666667h53.333334l-82.133334-224h-57.6z m-3.2 135.466666l26.666667-77.866666c2.133333-6.4 3.2-12.8 4.266667-19.2h1.066666c1.066667 8.533333 2.133333 14.933333 3.2 19.2l25.6 77.866666h-60.8z" fill="#FFFFFF" opacity=".5" p-id="10102"></path><path d="M378.666667 465.066667h-1.066667c-1.066667 6.4-2.133333 12.8-4.266667 19.2l-26.666666 77.866666h60.8l-25.6-77.866666c-1.066667-4.266667-2.133333-10.666667-3.2-19.2z" fill="#FFFFFF" p-id="10103"></path><path d="M721.066667 390.4h-84.266667c-23.466667 0-41.6-18.133333-41.6-41.6V256H357.333333c-23.466667 0-42.666667 19.2-42.666666 42.666667v224l36.266666-96h57.6L490.666667 650.666667h-53.333334l-17.066666-51.2h-83.2L320 650.666667h-5.333333v53.333333c0 23.466667 19.2 42.666667 42.666666 42.666667h330.666667c23.466667 0 42.666667-19.2 42.666667-42.666667V390.4h-9.6zM704 608h-66.133333c-3.2 8.533333-10.666667 16-19.2 19.2V714.666667c0 6.4-4.266667 10.666667-10.666667 10.666666s-10.666667-4.266667-10.666667-10.666666v-87.466667c-8.533333-3.2-16-10.666667-19.2-19.2H512c-6.4 0-10.666667-4.266667-10.666667-10.666667s4.266667-10.666667 10.666667-10.666666h66.133333c3.2-8.533333 10.666667-16 19.2-19.2V426.666667c0-6.4 4.266667-10.666667 10.666667-10.666667s10.666667 4.266667 10.666667 10.666667v140.8c8.533333 3.2 16 10.666667 19.2 19.2H704c6.4 0 10.666667 4.266667 10.666667 10.666666s-5.333333 10.666667-10.666667 10.666667z" fill="#FFFFFF" p-id="10104"></path><path d="M0 0h1024v1024H0V0z" fill="#FFBB4D" p-id="10105"></path><path d="M688 266.666667h-330.666667c-23.466667 0-42.666667 19.2-42.666666 42.666666v74.666667h10.666666c18.133333 0 32 13.866667 32 32s-13.866667 32-32 32h-10.666666v128h10.666666c18.133333 0 32 13.866667 32 32s-13.866667 32-32 32h-10.666666v74.666667c0 23.466667 19.2 42.666667 42.666666 42.666666h266.666667c3.2-2.133333 5.333333-4.266667 8.533333-6.4 22.4-22.4 34.133333-61.866667 34.133334-102.4 21.333333 0 45.866667 0 62.933333-11.733333 1.066667-1.066667 1.066667-2.133333 2.133333-3.2V309.333333c-1.066667-23.466667-20.266667-42.666667-43.733333-42.666666z m-160 106.666666c36.266667 0 65.066667 28.8 65.066667 64s-28.8 64-65.066667 64c-36.266667 0-65.066667-28.8-65.066667-64s28.8-64 65.066667-64z m81.066667 266.666667H446.933333c-20.266667 0-36.266667-16-36.266666-36.266667 0-50.133333 40.533333-90.666667 90.666666-90.666666h53.333334c50.133333 0 90.666667 40.533333 90.666666 90.666666 0 20.266667-16 36.266667-36.266666 36.266667z" fill="#FFFFFF" p-id="10106"></path><path d="M728.533333 637.866667c-17.066667 11.733333-40.533333 11.733333-62.933333 11.733333 0 39.466667-11.733333 78.933333-34.133333 102.4 41.6-29.866667 74.666667-68.266667 97.066666-114.133333z" fill="#FFFFFF" opacity=".5" p-id="10107"></path><path d="M624 757.333333h64c23.466667 0 42.666667-19.2 42.666667-42.666666v-80c-24.533333 50.133333-60.8 91.733333-106.666667 122.666666z" fill="#FFFFFF" opacity=".25" p-id="10108"></path><path d="M325.333333 384h-42.666666c-18.133333 0-32 13.866667-32 32s13.866667 32 32 32h42.666666c18.133333 0 32-13.866667 32-32s-13.866667-32-32-32zM325.333333 576h-42.666666c-18.133333 0-32 13.866667-32 32s13.866667 32 32 32h42.666666c18.133333 0 32-13.866667 32-32s-13.866667-32-32-32zM528 500.266667c36.266667 0 65.066667-28.8 65.066667-64s-28.8-64-65.066667-64c-36.266667 0-65.066667 28.8-65.066667 64s28.8 64 65.066667 64zM554.666667 513.066667h-53.333334c-50.133333 0-90.666667 40.533333-90.666666 90.666666 0 20.266667 16 36.266667 36.266666 36.266667h162.133334c20.266667 0 36.266667-16 36.266666-36.266667 0-50.133333-40.533333-90.666667-90.666666-90.666666z" fill="#FFFFFF" opacity=".5" p-id="10109"></path><path d="M0 0h1024v1024H0V0z" fill="#FF8A98" p-id="10110"></path><path d="M421.333333 416l-42.666666-74.666667h-21.333334v106.666667h21.333334v-74.666667l42.666666 74.666667h21.333334V341.333333h-21.333334zM464 448h64v-21.333333h-42.666667v-21.333334h42.666667v-21.333333h-42.666667v-21.333333h42.666667v-21.333334h-64zM668.8 341.333333l-20.266667 81.066667-21.333333-81.066667h-17.066667l-21.333333 81.066667-20.266667-81.066667h-19.2l29.866667 106.666667H597.333333l21.333334-80 20.266666 80h19.2l29.866667-106.666667zM378.666667 533.333333h96c11.733333 0 21.333333 9.6 21.333333 21.333334s-9.6 21.333333-21.333333 21.333333h-96c-11.733333 0-21.333333-9.6-21.333334-21.333333s9.6-21.333333 21.333334-21.333334zM560 522.666667h106.666667c11.733333 0 21.333333 9.6 21.333333 21.333333v106.666667c0 11.733333-9.6 21.333333-21.333333 21.333333h-106.666667c-11.733333 0-21.333333-9.6-21.333333-21.333333V544c0-11.733333 9.6-21.333333 21.333333-21.333333zM378.666667 618.666667h96c11.733333 0 21.333333 9.6 21.333333 21.333333s-9.6 21.333333-21.333333 21.333333h-96c-11.733333 0-21.333333-9.6-21.333334-21.333333s9.6-21.333333 21.333334-21.333333z" fill="#FFFFFF" opacity=".5" p-id="10111"></path><path d="M688 266.666667h-330.666667c-23.466667 0-42.666667 19.2-42.666666 42.666666v405.333334c0 23.466667 19.2 42.666667 42.666666 42.666666h330.666667c23.466667 0 42.666667-19.2 42.666667-42.666666V309.333333c0-23.466667-19.2-42.666667-42.666667-42.666666z m-119.466667 74.666666l19.2 81.066667h1.066667l20.266667-81.066667h18.133333l20.266667 81.066667h1.066666l19.2-81.066667h19.2l-29.866666 106.666667h-18.133334L618.666667 368 597.333333 448h-18.133333l-29.866667-106.666667h19.2z m-211.2 0h21.333334l42.666666 74.666667v-74.666667h21.333334v106.666667h-21.333334l-42.666666-74.666667v74.666667h-21.333334V341.333333z m117.333334 320h-96c-11.733333 0-21.333333-9.6-21.333334-21.333333s9.6-21.333333 21.333334-21.333333h96c11.733333 0 21.333333 9.6 21.333333 21.333333s-9.6 21.333333-21.333333 21.333333z m0-85.333333h-96c-11.733333 0-21.333333-9.6-21.333334-21.333333s9.6-21.333333 21.333334-21.333334h96c11.733333 0 21.333333 9.6 21.333333 21.333334s-9.6 21.333333-21.333333 21.333333z m53.333333-213.333333h-42.666667v21.333333h42.666667v21.333333h-42.666667v21.333334h42.666667v21.333333h-64V341.333333h64v21.333334z m160 288c0 11.733333-9.6 21.333333-21.333333 21.333333h-106.666667c-11.733333 0-21.333333-9.6-21.333333-21.333333V544c0-11.733333 9.6-21.333333 21.333333-21.333333h106.666667c11.733333 0 21.333333 9.6 21.333333 21.333333v106.666667z" fill="#FFFFFF" p-id="10112"></path><path d="M357.333333 672c-23.466667 0-42.666667 19.2-42.666666 42.666667V384h-21.333334c-23.466667 0-42.666667 19.2-42.666666 42.666667v288c0 23.466667 19.2 42.666667 42.666666 42.666666h64c23.466667 0 42.666667-19.2 42.666667-42.666666s-19.2-42.666667-42.666667-42.666667z" fill="#FFFFFF" opacity=".5" p-id="10113"></path><path d="M0 0h1024v1024H0V0z" fill="#5C9EFF" p-id="10114"></path><path d="M828.8 428.8l-181.333333-181.333333c-17.066667-17.066667-43.733333-17.066667-60.8 0L300.8 534.4c-17.066667 17.066667-17.066667 43.733333 0 60.8l181.333333 181.333333c17.066667 17.066667 43.733333 17.066667 60.8 0l286.933334-286.933333c16-17.066667 16-43.733333-1.066667-60.8z m-320 311.466667l-170.666667-170.666667 275.2-275.2 171.733334 171.733333-276.266667 274.133334z" fill="#FFFFFF" opacity=".5" p-id="10115"></path><path d="M531.2 478.933333c-8.533333-8.533333-21.333333-8.533333-29.866667 0-8.533333 8.533333-8.533333 21.333333 0 29.866667l123.733334 123.733333 29.866666-29.866666-123.733333-123.733334zM425.6 553.6c-8.533333 8.533333-8.533333 21.333333 0 29.866667l123.733333 123.733333 29.866667-29.866667-122.666667-123.733333c-8.533333-7.466667-22.4-7.466667-30.933333 0z" fill="#FFFFFF" opacity=".5" p-id="10116"></path><path d="M723.2 534.4L436.266667 248.533333c-17.066667-17.066667-43.733333-17.066667-60.8 0l-181.333334 181.333334c-17.066667 17.066667-17.066667 43.733333 0 60.8l286.933334 286.933333c17.066667 17.066667 43.733333 17.066667 60.8 0l181.333333-181.333333c17.066667-18.133333 17.066667-44.8 0-61.866667zM549.333333 708.266667L425.6 584.533333c-8.533333-8.533333-8.533333-21.333333 0-29.866666 8.533333-8.533333 21.333333-8.533333 29.866667 0l123.733333 123.733333-29.866667 29.866667z m75.733334-75.733334L501.333333 508.8c-8.533333-8.533333-8.533333-21.333333 0-29.866667 8.533333-8.533333 21.333333-8.533333 29.866667 0l123.733333 123.733334-29.866666 29.866666z" fill="#FFFFFF" p-id="10117"></path><path d="M0 0h1024v1024H0V0z" fill="#38E084" p-id="10118"></path><path d="M730.666667 213.333333h-330.666667c-23.466667 0-42.666667 19.2-42.666667 42.666667h237.866667l135.466667 134.4V704c23.466667 0 42.666667-19.2 42.666666-42.666667V256c0-23.466667-19.2-42.666667-42.666666-42.666667z" fill="#FFFFFF" opacity=".25" p-id="10119"></path><path d="M688 256h-330.666667c-23.466667 0-42.666667 19.2-42.666666 42.666667v405.333333c0 23.466667 19.2 42.666667 42.666666 42.666667h331.733334c16 0 29.866667-9.6 36.266666-22.4 3.2-6.4 5.333333-12.8 5.333334-20.266667V298.666667c0-23.466667-19.2-42.666667-42.666667-42.666667zM405.333333 357.333333h213.333334c11.733333 0 21.333333 9.6 21.333333 21.333334s-9.6 21.333333-21.333333 21.333333H405.333333c-11.733333 0-21.333333-9.6-21.333333-21.333333s9.6-21.333333 21.333333-21.333334z m-21.333333 106.666667c0-11.733333 9.6-21.333333 21.333333-21.333333h128c11.733333 0 21.333333 9.6 21.333334 21.333333s-9.6 21.333333-21.333334 21.333333H405.333333c-11.733333 0-21.333333-9.6-21.333333-21.333333z m225.066667 124.8l-22.4 21.333333-20.266667 20.266667-14.933333 14.933333-7.466667 7.466667c-2.133333 2.133333-4.266667 4.266667-6.4 5.333333l-6.4 3.2c-3.2 1.066667-5.333333 3.2-8.533333 3.2-4.266667 1.066667-8.533333 3.2-13.866667 4.266667-5.333333 1.066667-9.6 3.2-14.933333 4.266667-3.2 1.066667-7.466667 2.133333-10.666667 2.133333-3.2 1.066667-7.466667 0-9.6-1.066667-2.133333-2.133333-3.2-6.4-2.133333-9.6 0-2.133333 1.066667-6.4 2.133333-10.666666 3.2-10.666667 6.4-20.266667 9.6-29.866667 1.066667-4.266667 3.2-7.466667 4.266667-10.666667 1.066667-2.133333 2.133333-5.333333 4.266666-7.466666 2.133333-2.133333 3.2-4.266667 5.333334-6.4l6.4-6.4 14.933333-13.866667c5.333333-5.333333 12.8-11.733333 19.2-19.2l22.4-21.333333 24.533333-24.533334 51.2 50.133334-26.666666 24.533333z m61.866666-67.2c-1.066667 3.2-2.133333 5.333333-4.266666 7.466667-2.133333 2.133333-4.266667 4.266667-6.4 7.466666l-7.466667 7.466667-50.133333-50.133333 4.266666-4.266667 4.266667-4.266667 5.333333-5.333333c2.133333-2.133333 4.266667-3.2 6.4-4.266667 2.133333-1.066667 4.266667-1.066667 7.466667-1.066666 2.133333 0 4.266667 0 6.4 1.066666 2.133333 0 4.266667 1.066667 5.333333 2.133334 5.333333 2.133333 10.666667 6.4 16 10.666666 4.266667 3.2 7.466667 7.466667 10.666667 12.8 1.066667 2.133333 2.133333 4.266667 2.133333 6.4 1.066667 2.133333 1.066667 5.333333 1.066667 7.466667 0 1.066667 0 4.266667-1.066667 6.4z" fill="#FFFFFF" p-id="10120"></path><path d="M405.333333 400h213.333334c11.733333 0 21.333333-9.6 21.333333-21.333333s-9.6-21.333333-21.333333-21.333334H405.333333c-11.733333 0-21.333333 9.6-21.333333 21.333334s9.6 21.333333 21.333333 21.333333zM554.666667 464c0-11.733333-9.6-21.333333-21.333334-21.333333H405.333333c-11.733333 0-21.333333 9.6-21.333333 21.333333s9.6 21.333333 21.333333 21.333333h128c11.733333 0 21.333333-9.6 21.333334-21.333333zM670.933333 506.666667c-1.066667-2.133333-1.066667-4.266667-2.133333-6.4-3.2-4.266667-6.4-8.533333-10.666667-12.8-4.266667-4.266667-9.6-7.466667-16-10.666667-2.133333-1.066667-3.2-1.066667-5.333333-2.133333-2.133333 0-4.266667-1.066667-6.4-1.066667-2.133333 0-4.266667 0-7.466667 1.066667-2.133333 1.066667-4.266667 2.133333-6.4 4.266666l-5.333333 5.333334-4.266667 4.266666-4.266666 4.266667 50.133333 50.133333c2.133333-2.133333 4.266667-5.333333 7.466667-7.466666 3.2-3.2 5.333333-5.333333 6.4-7.466667 2.133333-2.133333 3.2-5.333333 4.266666-7.466667 1.066667-2.133333 1.066667-5.333333 1.066667-7.466666 0-2.133333-1.066667-4.266667-1.066667-6.4zM557.866667 538.666667l-22.4 21.333333-19.2 19.2-14.933334 13.866667-6.4 6.4c-1.066667 2.133333-3.2 4.266667-5.333333 6.4-2.133333 2.133333-3.2 4.266667-4.266667 7.466666-2.133333 3.2-3.2 7.466667-4.266666 10.666667-3.2 9.6-7.466667 20.266667-9.6 29.866667-1.066667 4.266667-2.133333 8.533333-2.133334 10.666666-1.066667 3.2 0 7.466667 2.133334 9.6 3.2 2.133333 6.4 2.133333 9.6 1.066667 3.2-1.066667 7.466667-1.066667 10.666666-2.133333 4.266667-1.066667 9.6-3.2 14.933334-4.266667 5.333333-1.066667 9.6-3.2 13.866666-4.266667 3.2-1.066667 6.4-2.133333 8.533334-3.2l6.4-3.2c2.133333-2.133333 4.266667-3.2 6.4-5.333333l7.466666-7.466667 14.933334-14.933333 20.266666-20.266667 22.4-21.333333 24.533334-23.466667-51.2-50.133333-22.4 23.466667z" fill="#FFFFFF" opacity=".5" p-id="10121"></path><path d="M0 0h1024v1024H0V0z" fill="#FF8A98" p-id="10122"></path><path d="M325.333333 730.666667h384c11.733333 0 21.333333 9.6 21.333334 21.333333s-9.6 21.333333-21.333334 21.333333h-384c-11.733333 0-21.333333-9.6-21.333333-21.333333s9.6-21.333333 21.333333-21.333333z" fill="#FFFFFF" opacity=".5" p-id="10123"></path><path d="M698.666667 570.666667h-138.666667c4.266667-18.133333 7.466667-45.866667 13.866667-66.133334 43.733333-22.4 74.666667-67.2 74.666666-119.466666 0-74.666667-60.8-134.4-136.533333-134.4-75.733333 0-136.533333 59.733333-136.533333 134.4 0 51.2 29.866667 96 72.533333 118.4 6.4 20.266667 10.666667 46.933333 16 67.2h-138.666667c-35.2 0-64 28.8-64 64s28.8 64 64 64h373.333334c35.2 0 64-28.8 64-64s-28.8-64-64-64z" fill="#FFFFFF" p-id="10124"></path><path d="M0 0h1024v1024H0V0z" fill="#FF8A98" p-id="10125"></path><path d="M617.6 621.866667L565.333333 567.466667c14.933333-33.066667 9.6-71.466667-17.066666-99.2-20.266667-20.266667-45.866667-28.8-71.466667-24.533334-7.466667 1.066667-9.6 11.733333-1.066667 14.933334 6.4 3.2 12.8 8.533333 18.133334 16 9.6 13.866667 9.6 33.066667 1.066666 48-14.933333 24.533333-46.933333 26.666667-66.133333 8.533333-4.266667-4.266667-6.4-8.533333-9.6-13.866667-2.133333-6.4-12.8-5.333333-14.933333 3.2-4.266667 24.533333 4.266667 51.2 21.333333 70.4 24.533333 26.666667 64 34.133333 96 20.266667l52.266667 54.4c10.666667 10.666667 27.733333 10.666667 39.466666 0l2.133334-3.2c12.8-12.8 12.8-29.866667 2.133333-40.533333z m0 0" fill="#FFFFFF" opacity=".25" p-id="10126"></path><path d="M426.666667 589.866667c-17.066667-19.2-24.533333-45.866667-21.333334-70.4 1.066667-8.533333 11.733333-9.6 14.933334-3.2 2.133333 5.333333 5.333333 9.6 9.6 13.866666 18.133333 19.2 51.2 16 66.133333-8.533333 7.466667-14.933333 7.466667-34.133333-1.066667-48-5.333333-8.533333-11.733333-13.866667-18.133333-16-7.466667-3.2-6.4-13.866667 1.066667-14.933333 11.733333-2.133333 23.466667-1.066667 35.2 2.133333V247.466667c-13.866667 1.066667-27.733333 8.533333-34.133334 21.333333L247.466667 669.866667c-7.466667 12.8-7.466667 29.866667 0 42.666666 7.466667 12.8 21.333333 21.333333 37.333333 21.333334H512V614.4c-29.866667 7.466667-62.933333 0-85.333333-24.533333z" fill="#FFFFFF" p-id="10127"></path><path d="M776.533333 669.866667L547.2 268.8c-7.466667-12.8-20.266667-20.266667-34.133333-21.333333v198.4c12.8 4.266667 24.533333 10.666667 35.2 21.333333 26.666667 26.666667 32 66.133333 17.066666 99.2l52.266667 54.4c10.666667 10.666667 10.666667 28.8 0 40.533333l-2.133333 3.2c-11.733333 10.666667-28.8 10.666667-39.466667 0l-53.333333-54.4c-3.2 1.066667-6.4 2.133333-10.666667 3.2v119.466667h227.2c14.933333 0 28.8-8.533333 37.333333-21.333333 7.466667-11.733333 7.466667-27.733333 0-41.6z" fill="#FFFFFF" opacity=".5" p-id="10128"></path><path d="M0 0h1024v1024H0V0z" fill="#5C9EFF" p-id="10129"></path><path d="M730.666667 213.333333h-330.666667c-23.466667 0-42.666667 19.2-42.666667 42.666667h237.866667l135.466667 134.4V704c23.466667 0 42.666667-19.2 42.666666-42.666667V256c0-23.466667-19.2-42.666667-42.666666-42.666667z" fill="#FFFFFF" opacity=".25" p-id="10130"></path><path d="M688 256h-330.666667c-23.466667 0-42.666667 19.2-42.666666 42.666667v405.333333c0 23.466667 19.2 42.666667 42.666666 42.666667h331.733334c16 0 29.866667-9.6 36.266666-22.4 3.2-6.4 5.333333-12.8 5.333334-20.266667V298.666667c0-23.466667-19.2-42.666667-42.666667-42.666667zM405.333333 357.333333h213.333334c11.733333 0 21.333333 9.6 21.333333 21.333334s-9.6 21.333333-21.333333 21.333333H405.333333c-11.733333 0-21.333333-9.6-21.333333-21.333333s9.6-21.333333 21.333333-21.333334z" fill="#FFFFFF" p-id="10131"></path><path d="M405.333333 400h213.333334c11.733333 0 21.333333-9.6 21.333333-21.333333s-9.6-21.333333-21.333333-21.333334H405.333333c-11.733333 0-21.333333 9.6-21.333333 21.333334s9.6 21.333333 21.333333 21.333333z" fill="#FFFFFF" opacity=".5" p-id="10132"></path><path d="M0 0h1024v1024H0V0z" fill="#38E084" p-id="10133"></path><path d="M346.666667 277.333333h298.666666c23.466667 0 42.666667 19.2 42.666667 42.666667v10.666667h-384v-10.666667c0-23.466667 19.2-42.666667 42.666667-42.666667z" fill="#FFFFFF" opacity=".5" p-id="10134"></path><path d="M389.333333 234.666667h224c23.466667 0 42.666667 19.2 42.666667 42.666666h-309.333333s19.2-42.666667 42.666666-42.666666z" fill="#FFFFFF" opacity=".25" p-id="10135"></path><path d="M334.933333 410.666667c-11.733333 0-21.333333 9.6-21.333333 21.333333s9.6 21.333333 21.333333 21.333333 21.333333-9.6 21.333334-21.333333-9.6-21.333333-21.333334-21.333333z m85.333334 42.666666h234.666666c11.733333 0 21.333333-9.6 21.333334-21.333333s-9.6-21.333333-21.333334-21.333333h-234.666666c-11.733333 0-21.333333 9.6-21.333334 21.333333s9.6 21.333333 21.333334 21.333333z m-85.333334 42.666667c-11.733333 0-21.333333 9.6-21.333333 21.333333s9.6 21.333333 21.333333 21.333334 21.333333-9.6 21.333334-21.333334-9.6-21.333333-21.333334-21.333333z m320 0h-234.666666c-11.733333 0-21.333333 9.6-21.333334 21.333333s9.6 21.333333 21.333334 21.333334h234.666666c11.733333 0 21.333333-9.6 21.333334-21.333334s-9.6-21.333333-21.333334-21.333333z" fill="#FFFFFF" opacity=".5" p-id="10136"></path><path d="M698.666667 558.933333c-65.066667 0-117.333333 52.266667-117.333334 117.333334s52.266667 117.333333 117.333334 117.333333 117.333333-52.266667 117.333333-117.333333-52.266667-117.333333-117.333333-117.333334z" fill="#FFFFFF" opacity=".5" p-id="10137"></path><path d="M581.333333 681.6v-5.333333c0-65.066667 52.266667-117.333333 117.333334-117.333334 19.2 0 37.333333 4.266667 53.333333 12.8V373.333333c0-23.466667-19.2-42.666667-42.666667-42.666666h-416c-23.466667 0-42.666667 19.2-42.666666 42.666666v298.666667c0 23.466667 19.2 42.666667 42.666666 42.666667h291.2c-2.133333-8.533333-3.2-18.133333-3.2-27.733334v-5.333333zM420.266667 410.666667h234.666666c11.733333 0 21.333333 9.6 21.333334 21.333333s-9.6 21.333333-21.333334 21.333333h-234.666666c-11.733333 0-21.333333-9.6-21.333334-21.333333s9.6-21.333333 21.333334-21.333333z m-85.333334 128c-11.733333 0-21.333333-9.6-21.333333-21.333334s9.6-21.333333 21.333333-21.333333 21.333333 9.6 21.333334 21.333333-9.6 21.333333-21.333334 21.333334z m0-85.333334c-11.733333 0-21.333333-9.6-21.333333-21.333333s9.6-21.333333 21.333333-21.333333 21.333333 9.6 21.333334 21.333333-9.6 21.333333-21.333334 21.333333z m64 64c0-11.733333 9.6-21.333333 21.333334-21.333333h234.666666c11.733333 0 21.333333 9.6 21.333334 21.333333s-9.6 21.333333-21.333334 21.333334h-234.666666c-11.733333 0-21.333333-9.6-21.333334-21.333334z" fill="#FFFFFF" p-id="10138"></path><path d="M762.666667 654.933333h-42.666667v-42.666666c0-11.733333-9.6-21.333333-21.333333-21.333334s-21.333333 9.6-21.333334 21.333334v42.666666h-42.666666c-11.733333 0-21.333333 9.6-21.333334 21.333334s9.6 21.333333 21.333334 21.333333h42.666666v42.666667c0 11.733333 9.6 21.333333 21.333334 21.333333s21.333333-9.6 21.333333-21.333333v-42.666667h42.666667c11.733333 0 21.333333-9.6 21.333333-21.333333s-9.6-21.333333-21.333333-21.333334z" fill="#FFFFFF" p-id="10139"></path><path d="M0 0h1024v1024H0V0z" fill="#FFBB4D" p-id="10140"></path><path d="M341.333333 640V341.333333h-42.666666c-23.466667 0-42.666667 19.2-42.666667 42.666667v341.333333c0 23.466667 19.2 42.666667 42.666667 42.666667h341.333333c23.466667 0 42.666667-19.2 42.666667-42.666667v-42.666666H384c-23.466667 0-42.666667-19.2-42.666667-42.666667z" fill="#FFFFFF" opacity=".5" p-id="10141"></path><path d="M682.666667 384H341.333333v256c0 23.466667 19.2 42.666667 42.666667 42.666667h341.333333c23.466667 0 42.666667-19.2 42.666667-42.666667V384h-85.333333z" fill="#FFFFFF" p-id="10142"></path><path d="M725.333333 256H384c-23.466667 0-42.666667 19.2-42.666667 42.666667v85.333333h426.666667v-85.333333c0-23.466667-19.2-42.666667-42.666667-42.666667z m-309.333333 85.333333c-11.733333 0-21.333333-9.6-21.333333-21.333333s9.6-21.333333 21.333333-21.333333h192c11.733333 0 21.333333 9.6 21.333333 21.333333s-9.6 21.333333-21.333333 21.333333H416z m277.333333 0c-11.733333 0-21.333333-9.6-21.333333-21.333333s9.6-21.333333 21.333333-21.333333 21.333333 9.6 21.333334 21.333333-9.6 21.333333-21.333334 21.333333z" fill="#FFFFFF" opacity=".5" p-id="10143"></path><path d="M693.333333 298.666667c-11.733333 0-21.333333 9.6-21.333333 21.333333s9.6 21.333333 21.333333 21.333333 21.333333-9.6 21.333334-21.333333-9.6-21.333333-21.333334-21.333333zM608 298.666667H416c-11.733333 0-21.333333 9.6-21.333333 21.333333s9.6 21.333333 21.333333 21.333333h192c11.733333 0 21.333333-9.6 21.333333-21.333333s-9.6-21.333333-21.333333-21.333333z" fill="#FFFFFF" p-id="10144"></path></svg>