<?xml version="1.0" standalone="no"?><!DOCTYPE svg PUBLIC "-//W3C//DTD SVG 1.1//EN" "http://www.w3.org/Graphics/SVG/1.1/DTD/svg11.dtd"><svg t="1638256343944" class="icon" viewBox="0 0 1024 1024" version="1.1" xmlns="http://www.w3.org/2000/svg" p-id="9358" width="128" height="128" xmlns:xlink="http://www.w3.org/1999/xlink"><defs><style type="text/css"></style></defs><path d="M491.008 966.016L106.88 703.104c-18.944-12.928-21.632-39.808-5.76-56.32 12.416-12.8 32.128-15.104 47.104-5.248L491.52 867.968c12.416 8.192 28.544 8.192 40.832 0l342.4-227.2c14.976-9.856 34.816-7.68 47.232 5.248l0.896 0.896c15.744 16.512 13.056 43.264-5.888 56.192L532.864 966.016c-12.672 8.704-29.184 8.704-41.856 0z" fill="#BAE7FF" p-id="9359"></path><path d="M491.008 799.744L106.88 536.704c-18.944-12.928-21.632-39.808-5.76-56.32 12.416-12.8 32.128-15.104 47.104-5.248L491.52 701.568c12.416 8.192 28.544 8.192 40.832 0l342.4-227.2c14.976-9.984 34.816-7.68 47.232 5.248l0.896 0.896c15.744 16.512 13.056 43.264-5.888 56.192L532.864 799.744c-12.672 8.576-29.184 8.576-41.856 0z" fill="#99DBF2" p-id="9360"></path><path d="M491.008 633.344L115.456 376.192c-21.504-14.72-21.504-46.464 0-61.184L491.008 57.984c12.672-8.576 29.184-8.576 41.856 0l375.552 257.152c21.504 14.72 21.504 46.464 0 61.184L532.864 633.344c-12.672 8.576-29.184 8.576-41.856 0z" fill="#319EEC" p-id="9361"></path><path d="M636.288 279.424L401.024 439.168c-15.104 10.24-35.968 6.272-46.208-8.832s-6.272-35.968 8.832-46.208l235.264-159.744c15.104-10.24 35.968-6.272 46.208 8.832s6.272 35.968-8.832 46.208z" fill="#FFFFFF" p-id="9362"></path></svg>