<?xml version="1.0" standalone="no"?><!DOCTYPE svg PUBLIC "-//W3C//DTD SVG 1.1//EN" "http://www.w3.org/Graphics/SVG/1.1/DTD/svg11.dtd"><svg t="1642148280499" class="icon" viewBox="0 0 1024 1024" version="1.1" xmlns="http://www.w3.org/2000/svg" p-id="52085" width="128" height="128" xmlns:xlink="http://www.w3.org/1999/xlink"><defs><style type="text/css"></style></defs><path d="M337.2 0H162.3l249.8 449.6h174.8L337.2 0z" fill="#E64A19" p-id="52086"></path><path d="M686.8 0L437.1 449.6h174.8L861.7 0H686.8z" fill="#FF754C" p-id="52087"></path><path d="M586.9 449.6l-1.7-3.3-1.7 3.3h3.4zM482.7 260.7l-86 160.4 27.9 54.4 87-160.6-28.9-54.2z" fill="#C93D18" p-id="52088"></path><path d="M512 724.3m-299.7 0a299.7 299.7 0 1 0 599.4 0 299.7 299.7 0 1 0-599.4 0Z" fill="#9FA8DA" p-id="52089"></path><path d="M487 649.4h50v149.9h-50z" fill="#C5CAE9" p-id="52090"></path><path d="M512 974c-137.9 0-249.8-111.8-249.8-249.8S374.1 474.5 512 474.5s249.8 111.8 249.8 249.8C761.6 862.2 649.9 973.9 512 974zM387.1 799.2v50h249.8v-50h-50V649.4h50v-50H387.1v50h50v149.9h-50z" fill="#C5CAE9" p-id="52091"></path></svg>