<?xml version="1.0" standalone="no"?><!DOCTYPE svg PUBLIC "-//W3C//DTD SVG 1.1//EN" "http://www.w3.org/Graphics/SVG/1.1/DTD/svg11.dtd"><svg t="1609320296433" class="icon" viewBox="0 0 1125 1024" version="1.1" xmlns="http://www.w3.org/2000/svg" p-id="5236" xmlns:xlink="http://www.w3.org/1999/xlink" width="140.625" height="128"><defs><style type="text/css"></style></defs><path d="M959.824079 489.763606c-57.420561-42.221001-126.663002-64.738868-198.157229-64.738867-142.425509 0-264.584937 88.945574-312.998351 214.482683H140.736668c-42.221001 0-76.560748-34.339747-76.560747-76.560748V460.490379c0-42.221001 34.339747-76.560748 76.560747-76.560747h742.526664c42.221001 0 76.560748 34.339747 76.560747 76.560747V489.763606z m-528.606927 213.919736a333.568422 333.568422 0 0 0 60.235294 256.140737H140.736668c-42.221001 0-76.560748-34.339747-76.560747-76.560747v-102.456295c0-42.221001 34.339747-76.560748 76.560747-76.560748h290.480484zM140.736668 64.175921h742.526664c42.221001 0 76.560748 34.339747 76.560747 76.560747v102.456295c0 42.221001-34.339747 76.560748-76.560747 76.560748H140.736668c-42.221001 0-76.560748-34.339747-76.560747-76.560748V140.736668c0-42.221001 34.339747-76.560748 76.560747-76.560747z m608.545355 959.824079c-145.240242 0-262.896097-117.655855-262.896097-262.896097s117.655855-262.896097 262.896097-262.896097 262.896097 117.655855 262.896097 262.896097-118.218802 262.896097-262.896097 262.896097z" fill="#D1D1D1" p-id="5237"></path><path d="M745.904343 498.207806v242.06707l144.114349 242.06707c-42.221001 27.02144-91.197361 41.095107-141.299616 41.095107-145.240242 0-262.896097-117.655855-262.896096-262.896096 0.562947-143.551402 116.529962-260.64431 260.081363-262.333151zM166.632216 127.788895c14.073667 0 25.3326 11.258933 25.3326 25.3326v64.175921c0 14.073667-11.258933 25.3326-25.3326 25.3326s-25.3326-11.258933-25.332601-25.3326V153.684442c-0.562947-14.073667 10.695987-25.895547 25.332601-25.895547z m0 332.701484c14.073667 0 25.3326 11.258933 25.3326 25.332601v64.17592c0 14.073667-11.258933 25.3326-25.3326 25.332601s-25.3326-11.258933-25.332601-25.332601V486.385926c-0.562947-14.073667 10.695987-25.895547 25.332601-25.895547z m0 320.316658c14.073667 0 25.3326 11.258933 25.3326 25.3326v64.175921c0 14.073667-11.258933 25.3326-25.3326 25.3326s-25.3326-11.258933-25.332601-25.3326v-64.175921c-0.562947-14.073667 10.695987-25.3326 25.332601-25.3326z m101.893347-653.018142c14.073667 0 25.3326 11.258933 25.332601 25.3326v64.175921c0 14.073667-11.258933 25.3326-25.332601 25.3326s-25.3326-11.258933-25.3326-25.3326V153.684442c0-14.073667 11.258933-25.895547 25.3326-25.895547z m0 332.701484c14.073667 0 25.3326 11.258933 25.332601 25.332601v64.17592c0 14.073667-11.258933 25.3326-25.332601 25.332601s-25.3326-11.258933-25.3326-25.332601V486.385926c0-14.073667 11.258933-25.895547 25.3326-25.895547z m0 320.316658c14.073667 0 25.3326 11.258933 25.332601 25.3326v64.175921c0 14.073667-11.258933 25.3326-25.332601 25.3326s-25.3326-11.258933-25.3326-25.3326v-64.175921c0-14.073667 11.258933-25.3326 25.3326-25.3326z" fill="#997CD8" p-id="5238"></path></svg>