<?xml version="1.0" standalone="no"?><!DOCTYPE svg PUBLIC "-//W3C//DTD SVG 1.1//EN" "http://www.w3.org/Graphics/SVG/1.1/DTD/svg11.dtd"><svg t="1609320155446" class="icon" viewBox="0 0 1024 1024" version="1.1" xmlns="http://www.w3.org/2000/svg" p-id="1813" width="128" height="128" xmlns:xlink="http://www.w3.org/1999/xlink"><defs><style type="text/css"></style></defs><path d="M139.636364 0h744.727272a139.636364 139.636364 0 0 1 139.636364 139.636364v744.727272a139.636364 139.636364 0 0 1-139.636364 139.636364H139.636364a139.636364 139.636364 0 0 1-139.636364-139.636364V139.636364a139.636364 139.636364 0 0 1 139.636364-139.636364z m496.733091 789.426424a12.132848 12.132848 0 0 0 12.815515-12.815515V582.438788a97.326545 97.326545 0 0 0-91.229091-99.793455h-96.19394a97.093818 97.093818 0 0 0-91.042909 99.793455v194.172121a12.132848 12.132848 0 0 0 12.815515 12.815515h252.83491z m-320.698182 0a11.915636 11.915636 0 0 0 12.567272-12.815515V574.339879a10.115879 10.115879 0 0 0-2.466909-10.333091 10.348606 10.348606 0 0 0-8.998788-3.816727h-39.098181a76.644848 76.644848 0 0 0-75.962182 75.729454v140.25697a12.148364 12.148364 0 0 0 12.598303 12.8h101.360485v0.465454z m489.720242 0a12.132848 12.132848 0 0 0 12.8-12.815515v-140.691394a76.412121 76.412121 0 0 0-75.962182-76.86206h-39.098181c-2.699636 0-7.64897 1.132606-8.998788 3.832242a25.801697 25.801697 0 0 0-2.466909 10.333091v202.27103a11.915636 11.915636 0 0 0 12.582787 12.815515l101.143273 1.117091zM730.763636 540.175515a89.894788 89.894788 0 1 0-88.544969-89.894788 88.793212 88.793212 0 0 0 88.560485 89.894788z m-439.140848 0a88.54497 88.54497 0 0 0 88.54497-89.894788 88.560485 88.560485 0 1 0-177.105455 0 88.560485 88.560485 0 0 0 88.560485 89.894788z m218.220606-78.196363a114.191515 114.191515 0 0 0 113.943273-115.308607 113.943273 113.943273 0 1 0-227.886546 0 114.393212 114.393212 0 0 0 113.943273 115.293091z" fill="#F1B619" p-id="1814"></path></svg>