<?xml version="1.0" standalone="no"?><!DOCTYPE svg PUBLIC "-//W3C//DTD SVG 1.1//EN" "http://www.w3.org/Graphics/SVG/1.1/DTD/svg11.dtd"><svg t="1663577935322" class="icon" viewBox="0 0 1280 1024" version="1.1" xmlns="http://www.w3.org/2000/svg" p-id="29637" xmlns:xlink="http://www.w3.org/1999/xlink" width="160" height="128"><path d="M1024 853.9264c0 14.7456-13.0304 26.6752-29.0816 26.6752H285.0944c-16.064 0-29.0944-11.9296-29.0944-26.6752V202.7392c0-14.7456 13.0432-26.7008 29.0944-26.7008h709.8112c16.064 0 29.0816 11.9552 29.0816 26.7008v651.1872z" fill="#B3B3B3" p-id="29638"></path><path d="M1024 816.8192c0 14.656-13.0304 26.5216-29.0816 26.5216H285.0944c-16.064 0-29.0944-11.8784-29.0944-26.5216v-646.912c0-14.6432 13.0432-26.5088 29.0944-26.5088h709.8112c16.064 0 29.0816 11.8656 29.0816 26.5088v646.912z" fill="#E5E7E6" p-id="29639"></path><path d="M668.3136 220.5952h310.72v62.1184H668.3136z" fill="#B3B3B3" p-id="29640"></path><path d="M421.5552 475.5584v0.0256c37.4144 0 74.8544-0.1152 112.2688 0.1024 6.4768 0.0256 9.1776-1.6 9.0624-8.1792a2600.0256 2600.0256 0 0 1-0.0384-66.2784c0.0896-5.7344-1.4592-8.1408-8.1792-8.128-74.8544 0.1792-149.6832 0.1792-224.5632-0.0512-7.3728-0.0128-9.1776 2.5728-9.0752 9.024 0.3072 21.0688 0.1152 42.1248 0.1024 63.1936 0 10.3296-0.0256 10.2912 10.5728 10.2912h109.8496zM421.7728 768.4224c37.4272 0 74.8672-0.128 112.2944 0.128 6.7584 0.0512 8.8832-1.9968 8.7808-8.3712a2107.9936 2107.9936 0 0 1-0.0256-65.4976c0.1152-6.72-2.0096-8.8064-9.216-8.7808-74.5728 0.2048-149.184 0.1792-223.7696 0-6.6688 0-8.9472 1.92-8.8448 8.3456 0.3328 21.5808 0.384 43.1744-0.0256 64.7296-0.1536 7.3728 2.2912 9.7024 10.1632 9.6256 36.8768-0.3328 73.7664-0.1536 110.6432-0.1792zM421.1072 572.6208v0.0512c37.4272 0 74.8672-0.128 112.2816 0.1152 6.8864 0.0512 9.5872-1.728 9.4464-8.6656a1984 1984 0 0 1 0.0128-64.7296c0.128-6.4256-2.7392-7.6672-8.704-7.6544-74.5984 0.1152-149.1712 0.1408-223.744-0.0512-6.9248-0.0256-9.6 1.6384-9.4464 8.6016 0.4096 21.3248 0.4224 42.6624 0 63.9616-0.1664 7.0912 2.6624 8.5376 9.4976 8.4864 36.9024-0.2432 73.792-0.1152 110.656-0.1152zM421.7856 669.7984v-0.0768c37.376 0 74.7648-0.128 112.1536 0.128 6.656 0.0256 8.9856-1.8048 8.8704-8.256a2221.6192 2221.6192 0 0 1 0-64.6528c0.064-5.8112-1.5616-8.1408-8.1792-8.1408-75.0336 0.1792-150.0672 0.2048-225.1008 0-7.104-0.0256-8.6144 2.624-8.5248 8.6528 0.2688 20.5312 0.1024 41.0496 0.128 61.5808 0 10.624 0.0128 10.752 10.9568 10.752 36.5568 0.0384 73.1392 0.0128 109.696 0.0128z" fill="#E5E7E6" p-id="29641"></path><path d="M367.6672 475.5584h-60.7616c-5.8752 0-5.8624 0.0256-5.8624-10.2912 0.0128-21.0688 0.128-42.1248-0.064-63.1936-0.0384-6.4512 0.9472-9.0368 5.0432-9.024 41.408 0.2304 82.8288 0.2304 124.2368 0.0512 3.712-0.0128 4.5696 2.3936 4.5312 8.128-0.128 22.0928-0.1792 44.1856 0.0128 66.2784 0.064 6.5792-1.408 8.2048-5.0048 8.1792-20.6976-0.2304-41.4208-0.1024-62.1312-0.1024v-0.0256z" fill="#FFFFFF" p-id="29642"></path><path d="M367.6672 365.4656h-60.7616c-5.8752 0-5.8624 0.0128-5.8624-5.6832 0.0128-11.6352 0.128-23.2704-0.064-34.9056-0.0384-3.5584 0.9472-5.0048 5.0432-4.992 41.408 0.128 82.8288 0.128 124.2368 0.0256 3.712-0.0128 4.5696 1.3184 4.5312 4.5056-0.128 12.1856-0.1792 24.3968 0.0128 36.5952 0.064 3.648-1.408 4.544-5.0048 4.5312-20.7104-0.1152-41.4336-0.064-62.1312-0.0768z" fill="#29ABE2" p-id="29643"></path><path d="M367.8208 799.3216c-20.416 0-40.832-0.2048-61.2352 0.1536-4.352 0.0768-5.696-2.2528-5.6192-9.6256 0.2432-21.5808 0.2048-43.1488 0.0128-64.7296-0.0384-6.4256 1.2288-8.3456 4.9152-8.3456 41.2672 0.1792 82.5344 0.2048 123.8016 0 3.9936-0.0256 5.1584 2.048 5.0944 8.7808-0.2048 21.824-0.1792 43.648 0 65.4976 0.0768 6.3488-1.1008 8.4224-4.8384 8.3712-20.7232-0.2432-41.4336-0.128-62.1312-0.1024zM367.4496 582.9248c-20.416 0-40.8192-0.1536-61.2224 0.128-3.776 0.0512-5.3504-1.4208-5.2608-8.4992 0.256-21.2992 0.2432-42.6368 0-63.9488-0.0768-6.9632 1.408-8.6272 5.2224-8.6144 41.2672 0.192 82.5344 0.1664 123.8016 0.0512 3.3152 0 4.8896 1.2288 4.8256 7.6544a3408.576 3408.576 0 0 0-0.0256 64.7168c0.0896 6.9504-1.3952 8.7296-5.2224 8.6784-20.6976-0.256-41.3952-0.1152-62.1184-0.1152v-0.0512zM367.8336 690.3808c-20.2496 0-40.4864 0.0256-60.7104-0.0256-6.0672 0-6.08-0.128-6.08-10.752 0-20.5312 0.1024-41.0496-0.0512-61.5808-0.0512-6.0288 0.7936-8.6784 4.7104-8.6528 41.5104 0.2048 83.0208 0.2048 124.5312 0.0256 3.6736-0.0256 4.5696 2.304 4.5312 8.128a3628.5312 3628.5312 0 0 0 0 64.6528c0.064 6.4768-1.2416 8.2944-4.9152 8.256-20.672-0.256-41.3696-0.128-62.0416-0.128 0.0256 0.0256 0.0256 0.0512 0.0256 0.0768z" fill="#FFFFFF" p-id="29644"></path><path d="M549.0688 475.5584h-60.7744c-5.8624 0-5.8496 0.0256-5.8496-10.2912 0.0128-21.0688 0.1152-42.1248-0.064-63.1936-0.0384-6.4512 0.9472-9.0368 5.0304-9.024 41.4208 0.2304 82.8416 0.2304 124.2368 0.0512 3.7248-0.0128 4.5824 2.3936 4.5312 8.128a4766.592 4766.592 0 0 0 0.0256 66.2784c0.064 6.5792-1.4208 8.2048-5.0176 8.1792-20.6848-0.2304-41.408-0.1024-62.1184-0.1024v-0.0256z" fill="#FFFFFF" p-id="29645"></path><path d="M549.0688 365.4656h-60.7744c-5.8624 0-5.8496 0.0128-5.8496-5.6832 0.0128-11.6352 0.1152-23.2704-0.064-34.9056-0.0384-3.5584 0.9472-5.0048 5.0304-4.992 41.4208 0.128 82.8416 0.128 124.2368 0.0256 3.7248-0.0128 4.5824 1.3184 4.5312 4.5056-0.1152 12.1856-0.1664 24.3968 0.0256 36.5952 0.064 3.648-1.4208 4.544-5.0176 4.5312-20.6848-0.1152-41.408-0.064-62.1184-0.0768z" fill="#29ABE2" p-id="29646"></path><path d="M549.2224 799.3216c-20.4032 0-40.832-0.2048-61.2224 0.1536-4.352 0.0768-5.6832-2.2528-5.6192-9.6256 0.2432-21.5808 0.192-43.1488 0.0128-64.7296-0.0384-6.4256 1.216-8.3456 4.9152-8.3456 41.2672 0.1792 82.5344 0.2048 123.8016 0 3.9808-0.0256 5.1584 2.048 5.0944 8.7808a3603.84 3603.84 0 0 0 0 65.4976c0.0768 6.3488-1.1136 8.4224-4.8512 8.3712-20.7104-0.2432-41.4336-0.128-62.1312-0.1024zM548.864 582.9248c-20.4032 0-40.8192-0.1536-61.2224 0.128-3.7888 0.0512-5.3504-1.4208-5.2608-8.4992 0.2432-21.2992 0.2432-42.6368 0-63.9488-0.064-6.9632 1.408-8.6272 5.2224-8.6144 41.2672 0.192 82.5216 0.1664 123.8016 0.0512 3.3024 0 4.8768 1.2288 4.8256 7.6544a3305.2928 3305.2928 0 0 0-0.0256 64.7168c0.0768 6.9504-1.408 8.7296-5.2096 8.6784-20.7104-0.256-41.4208-0.1152-62.1312-0.1152v-0.0512zM549.2352 690.3808c-20.224 0-40.4864 0.0256-60.6848-0.0256-6.0672 0-6.0928-0.128-6.0928-10.752 0-20.5312 0.1024-41.0496-0.0512-61.5808-0.064-6.0288 0.7808-8.6784 4.6976-8.6528 41.5232 0.2048 83.0336 0.2048 124.5312 0.0256 3.6736-0.0256 4.5824 2.304 4.5312 8.128a3753.6512 3753.6512 0 0 0 0 64.6528c0.064 6.4768-1.2288 8.2944-4.9024 8.256-20.6848-0.256-41.3696-0.128-62.0544-0.128 0.0256 0.0256 0.0256 0.0512 0.0256 0.0768z" fill="#FFFFFF" p-id="29647"></path><path d="M730.4832 475.5584h-60.7744c-5.8752 0-5.8624 0.0256-5.8624-10.2912 0.0128-21.0688 0.1408-42.1248-0.0512-63.1936-0.0384-6.4512 0.9344-9.0368 5.0432-9.024 41.3952 0.2304 82.8288 0.2304 124.2368 0.0512 3.6992-0.0128 4.5568 2.3936 4.5312 8.128-0.128 22.0928-0.1792 44.1856 0.0128 66.2784 0.0512 6.5792-1.4336 8.2048-5.0176 8.1792-20.6976-0.2304-41.408-0.1024-62.1184-0.1024v-0.0256z" fill="#FFFFFF" p-id="29648"></path><path d="M730.4832 365.4656h-60.7744c-5.8752 0-5.8624 0.0128-5.8624-5.6832 0.0128-11.6352 0.1408-23.2704-0.0512-34.9056-0.0384-3.5584 0.9344-5.0048 5.0432-4.992 41.3952 0.128 82.8288 0.128 124.2368 0.0256 3.6992-0.0128 4.5568 1.3184 4.5312 4.5056-0.128 12.1856-0.1792 24.3968 0.0128 36.5952 0.0512 3.648-1.4336 4.544-5.0176 4.5312-20.6976-0.1152-41.408-0.064-62.1184-0.0768z" fill="#29ABE2" p-id="29649"></path><path d="M730.6368 799.3216c-20.416 0-40.8064-0.2048-61.2224 0.1536-4.352 0.0768-5.6832-2.2528-5.6064-9.6256 0.2304-21.5808 0.192-43.1488 0-64.7296-0.0384-6.4256 1.216-8.3456 4.9152-8.3456 41.2672 0.1792 82.5216 0.2048 123.8016 0 3.9808-0.0256 5.1456 2.048 5.0944 8.7808-0.2048 21.824-0.1792 43.648 0 65.4976 0.064 6.3488-1.1136 8.4224-4.8384 8.3712-20.736-0.2432-41.4464-0.128-62.144-0.1024zM730.2656 582.9248c-20.3904 0-40.8064-0.1536-61.2096 0.128-3.7888 0.0512-5.3504-1.4208-5.248-8.4992 0.2304-21.2992 0.2304-42.6368 0-63.9488-0.0768-6.9632 1.3952-8.6272 5.2096-8.6144 41.2672 0.192 82.5088 0.1664 123.8016 0.0512 3.3152 0 4.8768 1.2288 4.8128 7.6544a3518.4896 3518.4896 0 0 0-0.0128 64.7168c0.0768 6.9504-1.408 8.7296-5.2096 8.6784-20.7104-0.256-41.4208-0.1152-62.1312-0.1152l-0.0128-0.0512zM730.6496 690.3808c-20.2368 0-40.4736 0.0256-60.6848-0.0256-6.0672 0-6.0928-0.128-6.0928-10.752-0.0128-20.5312 0.1024-41.0496-0.0512-61.5808-0.0512-6.0288 0.7808-8.6784 4.7104-8.6528 41.5104 0.2048 83.0208 0.2048 124.5312 0.0256 3.6608-0.0256 4.5568 2.304 4.5312 8.128a3628.5312 3628.5312 0 0 0 0 64.6528c0.0512 6.4768-1.2416 8.2944-4.9152 8.256-20.6848-0.256-41.3696-0.128-62.0544-0.128 0.0256 0.0256 0.0256 0.0512 0.0256 0.0768z" fill="#FFFFFF" p-id="29650"></path><path d="M911.8848 475.5584h-60.7616c-5.8752 0-5.8624 0.0256-5.8624-10.2912 0.0128-21.0688 0.1408-42.1248-0.0512-63.1936-0.0512-6.4512 0.9344-9.0368 5.0432-9.024 41.3952 0.2304 82.8288 0.2304 124.224 0.0512 3.712-0.0128 4.5568 2.3936 4.5312 8.128-0.1408 22.0928-0.1792 44.1856 0.0128 66.2784 0.0512 6.5792-1.4336 8.2048-5.0176 8.1792-20.6976-0.2304-41.3952-0.1024-62.1312-0.1024l0.0128-0.0256z" fill="#FFFFFF" p-id="29651"></path><path d="M911.8848 365.4656h-60.7616c-5.8752 0-5.8624 0.0128-5.8624-5.6832 0.0128-11.6352 0.1408-23.2704-0.0512-34.9056-0.0512-3.5584 0.9344-5.0048 5.0432-4.992 41.3952 0.128 82.8288 0.128 124.224 0.0256 3.712-0.0128 4.5568 1.3184 4.5312 4.5056a1341.44 1341.44 0 0 0 0.0128 36.5952c0.0512 3.648-1.4336 4.544-5.0176 4.5312-20.6848-0.1152-41.3952-0.064-62.1184-0.0768z" fill="#29ABE2" p-id="29652"></path><path d="M912.0512 799.3216c-20.416 0-40.8192-0.2048-61.2224 0.1536-4.3648 0.0768-5.696-2.2528-5.6064-9.6256 0.2176-21.5808 0.192-43.1488 0-64.7296-0.0512-6.4256 1.2032-8.3456 4.9024-8.3456 41.2672 0.1792 82.5344 0.2048 123.8144 0 3.968-0.0256 5.1456 2.048 5.0944 8.7808-0.2048 21.824-0.1792 43.648 0 65.4976 0.0768 6.3488-1.1008 8.4224-4.8512 8.3712-20.7232-0.2432-41.4464-0.128-62.1312-0.1024zM911.68 582.9248c-20.3904 0-40.8064-0.1536-61.2096 0.128-3.7888 0.0512-5.3504-1.4208-5.248-8.4992 0.2304-21.2992 0.2176-42.6368 0-63.9488-0.0896-6.9632 1.3824-8.6272 5.2096-8.6144 41.2672 0.192 82.5216 0.1664 123.8016 0.0512 3.3024 0 4.8896 1.2288 4.8128 7.6544a3518.4896 3518.4896 0 0 0-0.0128 64.7168c0.0896 6.9504-1.408 8.7296-5.2224 8.6784-20.6976-0.256-41.4208-0.1152-62.1312-0.1152v-0.0512zM912.064 690.3808c-20.2368 0-40.4864 0.0256-60.6976-0.0256-6.0672 0-6.08-0.128-6.08-10.752-0.0128-20.5312 0.1024-41.0496-0.064-61.5808-0.0512-6.0288 0.8064-8.6784 4.7104-8.6528 41.5232 0.2048 83.0336 0.2048 124.5312 0.0256 3.6608-0.0256 4.5568 2.304 4.544 8.128a3628.5312 3628.5312 0 0 0 0 64.6528c0.0384 6.4768-1.2416 8.2944-4.928 8.256-20.672-0.256-41.3696-0.128-62.0416-0.128 0.0256 0.0256 0.0256 0.0512 0.0256 0.0768z" fill="#FFFFFF" p-id="29653"></path></svg>