<?xml version="1.0" standalone="no"?><!DOCTYPE svg PUBLIC "-//W3C//DTD SVG 1.1//EN" "http://www.w3.org/Graphics/SVG/1.1/DTD/svg11.dtd"><svg t="1663577164420" class="icon" viewBox="0 0 1024 1024" version="1.1" xmlns="http://www.w3.org/2000/svg" p-id="1777" xmlns:xlink="http://www.w3.org/1999/xlink" width="128" height="128"><path d="M117 608.4v178.5c1.5 93.7 155.7 169.5 395 169.5s393.4-75.8 395-169.5V608.4H117z" fill="#1B9BDB" p-id="1778"></path><path d="M907 607.7c0 99.4-154.8 180-395 180s-395-80.6-395-180 154.8-180 395-180 395 80.5 395 180z" fill="#FFFFFF" p-id="1779"></path><path d="M117 428.4v158.5c1.5 93.7 155.7 179.5 395 179.5s393.4-85.8 395-179.5V428.4H117z" fill="#1B9BDB" p-id="1780"></path><path d="M907 427.7c0 99.4-154.8 180-395 180s-395-80.6-395-180 154.8-180 395-180 395 80.5 395 180z" fill="#FFFFFF" p-id="1781"></path><path d="M117 248.4v158.5c1.5 93.7 155.7 179.5 395 179.5s393.4-85.8 395-179.5V248.4H117z" fill="#1B9BDB" p-id="1782"></path><path d="M907 247.7c0 99.4-154.8 180-395 180s-395-80.6-395-180 154.8-180 395-180 395 80.5 395 180z" fill="#3ED6FF" p-id="1783"></path></svg>