<svg height="100%" version="1.1" width="100%" xmlns="http://www.w3.org/2000/svg" preserveAspectRatio="xMidYMid meet"
     viewBox="0 0 600 442" xmlns:xlink="http://www.w3.org/1999/xlink">
    <desc>Created with Snap</desc>
    <defs/>
    <g id="root" contentwidth="480" contentheight="285.2116182572614">
        <rect class="background" height="2000%" width="2000%" y="-100%" x="-100%" style="" fill="#ffffff"
              opacity="0.0"/>
        <g class="content" id="content" transform="matrix(0.4979,0,0,0.4979,191.5519,230.7095)">
            <g class="icon" style="mask: url(#mask);">
                <svg height="572.8" version="1.1" width="964" xmlns="http://www.w3.org/2000/svg" x="-264.2" y="-305.9">
                    <desc>Created with Snap</desc>
                    <defs/>
                    <svg xmlns:xlink="http://www.w3.org/1999/xlink" version="1.1" xmlns="http://www.w3.org/2000/svg"
                         viewBox="0 0 964 572.8">
                        <defs/>
                        <g fill="white" stroke="white">
                            <path fill="none" stroke="" paint-order="fill stroke markers"
                                  d=" M 723 240.99999999999997 L 261 240.99999999999997 Q 241 240.99999999999997 241 261 L 241 331.79999999999995 L 703 331.79999999999995 Q 723 331.79999999999995 723 311.79999999999995 L 723 240.99999999999997"
                                  stroke-linecap="square" stroke-miterlimit="10" stroke-width="3"
                                  class="nameBg sloganBg" style=""/>
                            <path fill="#999999" stroke="none" paint-order="stroke fill markers"
                                  d=" M 251 331.79999999999995 L 703 331.79999999999995 Q 723 331.79999999999995 723 311.79999999999995 L 723 250.99999999999997 L 733 250.99999999999997 L 733 321.79999999999995 Q 733 341.79999999999995 713 341.79999999999995 L 251 341.79999999999995 L 251 331.79999999999995"
                                  opacity="0.6" style=""/>
                            <path fill="#666666" stroke="none" paint-order="stroke fill markers"
                                  d=" M 261 341.79999999999995 L 713 341.79999999999995 Q 733 341.79999999999995 733 321.79999999999995 L 733 261 L 743 261 L 743 331.79999999999995 Q 743 351.79999999999995 723 351.79999999999995 L 261 351.79999999999995 L 261 341.79999999999995"
                                  opacity="0.39999999999999997" style=""/>
                            <path fill="none" stroke="" paint-order="stroke fill markers"
                                  d=" M 723 240.99999999999997 L 261 240.99999999999997 Q 241 240.99999999999997 241 261 L 241 331.79999999999995 L 703 331.79999999999995 Q 723 331.79999999999995 723 311.79999999999995 L 723 240.99999999999997"
                                  stroke-linecap="square" stroke-miterlimit="10" stroke-width="3" style=""/>
                            <path fill="none" stroke="" paint-order="fill stroke markers"
                                  d=" M 723 240.99999999999997 L 261 240.99999999999997 Q 241 240.99999999999997 241 261 L 241 331.79999999999995 L 703 331.79999999999995 Q 723 331.79999999999995 723 311.79999999999995 L 723 240.99999999999997"
                                  stroke-linecap="square" stroke-miterlimit="10" stroke-width="3" style=""/>
                        </g>
                        <desc>Created with Snap</desc>
                    </svg>
                </svg>
            </g>
            <g id="icon_name_and_slogan_gap">
            </g>
            <g class="name_and_slogan" id="name_and_slogan_id">
                <g class="name">
                    <g id="nameDefaultGroup">
                        <path d="M2.2 -38.7L40.2 -38.7L40.2 -28.4L17.1 -8.6L41.5 -8.6L41.5 0.8L1.8 0.8L1.8 -10.2L24.4 -29.3L2.2 -29.3L2.2 -38.7zM89.6 -10.7L87 0.9L47 0.9L47 -38.9L88.6 -38.9L88.6 -15.5L60 -15.5L60 -6.9L77 -6.9L78.1 -10.7L89.6 -10.7zM60 -31L60 -23.5L76.1 -23.5L76.1 -31L60 -31zM126.7 -30L109.3 -25.4L109.3 0.9L97 0.9L97 -38.6L109.3 -38.6L109.3 -35.2L126.7 -39.9L126.7 -30zM133.6 0.9L133.6 -38.8L175.1 -38.8L175.1 0.9L133.6 0.9zM162 -29.3L146 -29.3L146 -8.2L162 -8.2L162 -29.3zM211.8 -30L194.3 -25.4L194.3 0.9L182 0.9L182 -38.6L194.3 -38.6L194.3 -35.2L211.8 -39.9L211.8 -30zM218.8 0.9L218.8 -38.8L231.3 -38.8L231.3 -8.6L244.3 -8.6L244.3 -38.8L257 -38.8L257 0.9L218.8 0.9zM289.6 0.9L289.6 -28.9L276.1 -28.9L276.1 0.9L263.7 0.9L263.7 -38.6L301.9 -38.6L301.9 0.9L289.6 0.9zM334.6 0.9L334.6 -28.9L321.2 -28.9L321.2 0.9L308.8 0.9L308.8 -38.6L347 -38.6L347 0.9L334.6 0.9zM396.6 -10.7L394.1 0.9L354.1 0.9L354.1 -38.9L395.7 -38.9L395.7 -15.5L367 -15.5L367 -6.9L384 -6.9L385.2 -10.7L396.6 -10.7zM367 -31L367 -23.5L383.2 -23.5L383.2 -31L367 -31zM433.8 -30L416.4 -25.4L416.4 0.9L404.1 0.9L404.1 -38.6L416.4 -38.6L416.4 -35.2L433.8 -39.9L433.8 -30z"
                              style="" fill="#ffffff" id="namepathdata"/>
                    </g>
                </g>
                <g class="slogan">
                    <g id="sloganDefaultGroup"/>
                </g>
            </g>
            <g class="border">
            </g>
        </g>

        <defs id="defs">
            <mask xmlns="http://www.w3.org/2000/svg" id="mask">
                <rect id="showAll" fill="white" x="-264.2" y="-305.9" width="964" height="572.8"/>
                <rect id="hideNameBg" fill="black" x="0" y="0" width="0" height="0" stroke-width="2" stroke="black"/>
                <rect id="hideSloganBg" fill="black" x="0" y="0" width="0" height="0" stroke-width="2" stroke="black"/>
                <path d="M2.2 -38.7L40.2 -38.7L40.2 -28.4L17.1 -8.6L41.5 -8.6L41.5 0.8L1.8 0.8L1.8 -10.2L24.4 -29.3L2.2 -29.3L2.2 -38.7zM89.6 -10.7L87 0.9L47 0.9L47 -38.9L88.6 -38.9L88.6 -15.5L60 -15.5L60 -6.9L77 -6.9L78.1 -10.7L89.6 -10.7zM60 -31L60 -23.5L76.1 -23.5L76.1 -31L60 -31zM126.7 -30L109.3 -25.4L109.3 0.9L97 0.9L97 -38.6L109.3 -38.6L109.3 -35.2L126.7 -39.9L126.7 -30zM133.6 0.9L133.6 -38.8L175.1 -38.8L175.1 0.9L133.6 0.9zM162 -29.3L146 -29.3L146 -8.2L162 -8.2L162 -29.3zM211.8 -30L194.3 -25.4L194.3 0.9L182 0.9L182 -38.6L194.3 -38.6L194.3 -35.2L211.8 -39.9L211.8 -30zM218.8 0.9L218.8 -38.8L231.3 -38.8L231.3 -8.6L244.3 -8.6L244.3 -38.8L257 -38.8L257 0.9L218.8 0.9zM289.6 0.9L289.6 -28.9L276.1 -28.9L276.1 0.9L263.7 0.9L263.7 -38.6L301.9 -38.6L301.9 0.9L289.6 0.9zM334.6 0.9L334.6 -28.9L321.2 -28.9L321.2 0.9L308.8 0.9L308.8 -38.6L347 -38.6L347 0.9L334.6 0.9zM396.6 -10.7L394.1 0.9L354.1 0.9L354.1 -38.9L395.7 -38.9L395.7 -15.5L367 -15.5L367 -6.9L384 -6.9L385.2 -10.7L396.6 -10.7zM367 -31L367 -23.5L383.2 -23.5L383.2 -31L367 -31zM433.8 -30L416.4 -25.4L416.4 0.9L404.1 0.9L404.1 -38.6L416.4 -38.6L416.4 -35.2L433.8 -39.9L433.8 -30z"
                      style="stroke-width: 0;" fill="#000000" id="masknamepathdata" stroke="#000000"
                      paint-order="stroke" transform="matrix(1,0,0,1,0,0)"/>
            </mask>
        </defs>

    </g>
</svg>